<svg width="13.999878" height="12.012085" viewBox="0 0 13.9999 12.0121" fill="none" xmlns="http://www.w3.org/2000/svg" xmlns:xlink="http://www.w3.org/1999/xlink">
	<desc>
			Created with Pixso.
	</desc>
	<defs/>
	<path id="Vector" d="M8.12097 0.292786C7.93353 0.480286 7.82819 0.734619 7.82819 0.999756C7.82819 1.26495 7.93353 1.51929 8.12097 1.70679L11.413 4.99976L1 5.00677C0.734802 5.00677 0.480408 5.11212 0.292908 5.29968C0.105347 5.48724 0 5.74158 0 6.00677C0 6.27197 0.105347 6.52637 0.292908 6.71387C0.480408 6.90143 0.734802 7.00677 1 7.00677L11.414 6.99976L8.12097 10.2928C8.02551 10.385 7.94928 10.4954 7.89691 10.6174C7.84448 10.7394 7.81689 10.8706 7.81573 11.0034C7.81458 11.1362 7.8399 11.2678 7.8902 11.3907C7.94043 11.5136 8.01471 11.6253 8.10858 11.7192C8.20251 11.813 8.31415 11.8873 8.43707 11.9376C8.55994 11.9879 8.69165 12.0132 8.8244 12.012C8.95715 12.0109 9.08838 11.9833 9.21039 11.9309C9.3324 11.8785 9.44275 11.8023 9.53497 11.7068L13.121 8.12177C13.3997 7.8432 13.6207 7.51245 13.7714 7.14844C13.9222 6.78442 13.9999 6.39429 13.9999 6.00031C13.9999 5.60626 13.9222 5.21613 13.7714 4.85211C13.6207 4.4881 13.3997 4.15735 13.121 3.87878L9.53497 0.292786C9.34747 0.105286 9.09314 0 8.828 0C8.56287 0 8.30853 0.105286 8.12097 0.292786Z" fill="#FFFFFF" fill-opacity="1.000000" fill-rule="nonzero"/>
</svg>
