<svg width="200.000000" height="39.000000" viewBox="0 0 200 39" fill="none" xmlns="http://www.w3.org/2000/svg" xmlns:xlink="http://www.w3.org/1999/xlink">
	<desc>
			Created with Pixso.
	</desc>
	<defs/>
	<path id="SimpleFood" d="M184.585 30.7583Q185.89 31.3303 187.606 31.3303Q189.516 31.3303 190.788 30.6697Q192.061 30.0094 192.882 28.987L192.883 28.9858L192.883 30.2104Q192.883 30.4086 192.959 30.572Q193.009 30.681 193.093 30.7744Q193.144 30.8278 193.204 30.8686Q193.398 31 193.681 31L196.283 31Q196.468 31 196.62 30.9294Q196.74 30.8738 196.839 30.7744Q196.956 30.6575 197.014 30.5163Q197.073 30.3754 197.073 30.2104L197.073 8.36084Q197.073 8.18652 197.008 8.04137Q196.949 7.91147 196.839 7.80493Q196.732 7.69459 196.603 7.63636Q196.457 7.57129 196.283 7.57129L193.479 7.57129Q193.227 7.57129 193.045 7.68424Q192.966 7.73374 192.899 7.80493Q192.822 7.88823 192.773 7.9858Q192.69 8.15248 192.69 8.36084L192.69 15.6843Q191.86 14.7336 190.619 14.1213Q189.387 13.509 187.606 13.509Q185.89 13.509 184.585 14.1052Q183.709 14.5052 183.026 15.1192Q182.691 15.4203 182.402 15.7729L182.4 15.7753Q181.531 16.846 181.088 18.2625Q180.645 19.6804 180.573 21.332Q180.54 21.9282 180.54 22.4036Q180.54 22.8789 180.573 23.4751Q180.645 25.1912 181.104 26.6252Q181.564 28.0593 182.418 29.1228Q182.662 29.4219 182.942 29.6829Q183.65 30.3426 184.585 30.7583ZM119.271 30.9366Q119.419 31 119.594 31L122.494 31Q122.745 31 122.934 30.8919Q123.018 30.8438 123.09 30.7744Q123.207 30.6575 123.266 30.5163Q123.324 30.3754 123.324 30.2104L123.324 22.0249L133.258 22.0249Q133.516 22.0249 133.705 21.9102Q133.781 21.8641 133.846 21.7993Q133.963 21.6824 134.021 21.5412Q134.08 21.4003 134.08 21.2354L134.08 18.9231Q134.08 18.6851 133.979 18.5027Q133.926 18.4072 133.846 18.3269Q133.773 18.2514 133.686 18.2003Q133.503 18.0933 133.258 18.0933L123.324 18.0933L123.324 11.8252L133.91 11.8252Q134.217 11.8252 134.425 11.6816Q134.468 11.6518 134.507 11.6157Q134.578 11.5494 134.627 11.4697Q134.74 11.2877 134.74 11.0356L134.74 8.72339Q134.74 8.47795 134.633 8.29528Q134.582 8.20812 134.507 8.13525Q134.441 8.06767 134.364 8.01963Q134.174 7.90161 133.91 7.90161L119.594 7.90161Q119.429 7.90161 119.288 7.9599Q119.147 8.01831 119.03 8.13525Q118.954 8.20812 118.903 8.29528Q118.796 8.47795 118.796 8.72339L118.796 30.2104Q118.796 30.3754 118.854 30.5163Q118.913 30.6575 119.03 30.7744Q119.139 30.8804 119.271 30.9366ZM142.473 30.4119Q144.278 31.3303 146.913 31.3303Q149.555 31.3303 151.352 30.4119Q152.53 29.8071 153.337 28.8795Q153.767 28.3862 154.091 27.8015Q155.034 26.1177 155.163 23.8699Q155.203 23.2817 155.203 22.4277Q155.203 21.5657 155.163 20.9695Q155.034 18.6895 154.059 17.0217Q153.705 16.417 153.244 15.9108Q152.433 15.021 151.287 14.4355Q149.491 13.509 146.913 13.509Q144.343 13.509 142.538 14.4355Q141.393 15.021 140.581 15.9108Q140.12 16.417 139.766 17.0217Q138.8 18.6895 138.663 20.9695Q138.63 21.5657 138.63 22.4277Q138.63 23.2817 138.663 23.8699Q138.8 26.1177 139.734 27.8015Q140.074 28.4092 140.526 28.9183Q141.325 29.8197 142.473 30.4119ZM163.428 30.4119Q165.233 31.3303 167.868 31.3303Q170.51 31.3303 172.307 30.4119Q173.485 29.8071 174.292 28.8795Q174.722 28.3862 175.046 27.8015Q175.989 26.1177 176.118 23.8699Q176.158 23.2817 176.158 22.4277Q176.158 21.5657 176.118 20.9695Q175.989 18.6895 175.014 17.0217Q174.66 16.417 174.199 15.9108Q173.388 15.021 172.242 14.4355Q170.446 13.509 167.868 13.509Q165.298 13.509 163.493 14.4355Q162.348 15.021 161.536 15.9108Q161.075 16.417 160.721 17.0217Q159.755 18.6895 159.618 20.9695Q159.585 21.5657 159.585 22.4277Q159.585 23.2817 159.618 23.8699Q159.755 26.1177 160.689 27.8015Q161.029 28.4092 161.481 28.9183Q162.28 29.8197 163.428 30.4119ZM149.112 27.4255Q148.244 28.0593 146.913 28.0593Q145.602 28.0593 144.735 27.4393Q144.446 27.232 144.206 26.9556Q143.255 25.8518 143.15 23.7087Q143.118 23.2092 143.118 22.4197Q143.118 21.6301 143.15 21.1306Q143.255 18.9875 144.206 17.8838Q144.446 17.6073 144.735 17.4001Q145.602 16.78 146.913 16.78Q148.244 16.78 149.112 17.4138Q149.389 17.6164 149.62 17.8838Q150.578 18.9875 150.675 21.1306Q150.707 21.6301 150.707 22.4197Q150.707 23.2092 150.675 23.7087Q150.578 25.8518 149.62 26.9556Q149.389 27.2229 149.112 27.4255ZM170.067 27.4255Q169.199 28.0593 167.868 28.0593Q166.557 28.0593 165.69 27.4393Q165.401 27.232 165.161 26.9556Q164.21 25.8518 164.105 23.7087Q164.073 23.2092 164.073 22.4197Q164.073 21.6301 164.105 21.1306Q164.21 18.9875 165.161 17.8838Q165.401 17.6073 165.69 17.4001Q166.557 16.78 167.868 16.78Q169.199 16.78 170.067 17.4138Q170.344 17.6164 170.575 17.8838Q171.533 18.9875 171.63 21.1306Q171.662 21.6301 171.662 22.4197Q171.662 23.2092 171.63 23.7087Q171.533 25.8518 170.575 26.9556Q170.344 27.2229 170.067 27.4255ZM191.03 27.1731Q190.208 27.8015 188.823 27.8015Q187.437 27.8015 186.631 27.1892Q186.334 26.9637 186.098 26.6867Q185.692 26.2119 185.463 25.5859Q185.1 24.595 185.028 23.4106Q185.012 22.9152 185.012 22.4197Q185.012 21.9242 185.028 21.4287Q185.1 20.2444 185.463 19.2534Q185.692 18.6275 186.098 18.1526Q186.334 17.8757 186.631 17.6501Q187.437 17.0378 188.823 17.0378Q190.144 17.0378 190.966 17.634Q191.433 17.9697 191.772 18.405Q192.036 18.7428 192.223 19.1406Q192.466 19.646 192.584 20.1792Q192.676 20.598 192.69 21.0339Q192.722 21.6301 192.722 22.3069Q192.722 22.9836 192.69 23.5718Q192.681 23.8466 192.646 24.1179Q192.549 24.8568 192.255 25.5698Q192.043 26.093 191.706 26.5163Q191.415 26.8819 191.03 27.1731Z" fill="#363853" fill-opacity="1.000000" fill-rule="evenodd"/>
	<path id="SimpleFood" d="M25.1351 10.9451Q25.2759 11.0034 25.4409 11.0034L28.4461 11.0034Q28.6915 11.0034 28.8742 10.8963Q28.9613 10.8452 29.0342 10.7698Q29.161 10.643 29.219 10.4901Q29.2678 10.3613 29.2678 10.2139L29.2678 7.83716Q29.2678 7.67216 29.2096 7.53129Q29.1511 7.39013 29.0342 7.27319Q28.9613 7.19772 28.8742 7.14663Q28.6915 7.03955 28.4461 7.03955L25.4409 7.03955Q25.2759 7.03955 25.1351 7.09784Q24.9939 7.15625 24.877 7.27319Q24.771 7.38297 24.7148 7.51408Q24.6514 7.66203 24.6514 7.83716L24.6514 10.2139Q24.6514 10.3705 24.7047 10.5063Q24.7611 10.6497 24.877 10.7698Q24.9939 10.8867 25.1351 10.9451ZM5.4624 30.428Q7.5249 31.3303 10.5945 31.3303Q13.3982 31.3303 15.509 30.5085Q17.6199 29.6787 18.7881 28.1479Q19.0539 27.8002 19.2596 27.42Q19.9644 26.1176 19.9644 24.4338Q19.9644 22.4841 19.1345 21.2192Q18.3127 19.9463 16.5322 19.1245Q14.7517 18.2947 11.948 17.6663Q9.96606 17.1426 8.75757 16.6833Q7.55713 16.2161 7.00928 15.6038Q6.86362 15.4385 6.75726 15.251Q6.46948 14.7436 6.46948 14.073Q6.46948 13.2581 6.84557 12.694Q7.10906 12.2988 7.55713 12.0266Q8.64478 11.366 10.4253 11.366Q12.1414 11.366 13.229 12.0911Q14.1663 12.7114 14.4433 13.5498Q14.4901 13.6915 14.5181 13.8394Q14.6873 14.2019 14.9451 14.3389Q15.2109 14.4678 15.4768 14.4678L18.5464 14.4678Q18.7945 14.4678 18.9563 14.3496Q19.0099 14.3104 19.054 14.2583Q19.1743 14.117 19.2165 13.9553Q19.2393 13.8681 19.2393 13.7749Q19.207 12.7517 18.627 11.6802Q18.0549 10.6086 16.9592 9.66602Q15.8716 8.72339 14.22 8.15137Q12.5764 7.57129 10.4253 7.57129Q7.75854 7.57129 5.82495 8.43335Q3.89482 9.28582 2.85578 10.7645Q2.85391 10.7671 2.85205 10.7698Q2.49573 11.278 2.26157 11.8374Q1.81274 12.9096 1.81274 14.1697Q1.81274 16.1516 2.65063 17.4407Q3.49658 18.7217 5.16431 19.5676Q6.83203 20.4055 9.30542 21.0017Q11.4485 21.5254 12.7537 22.0088Q14.0588 22.4841 14.6873 23.0642Q14.8997 23.2603 15.0403 23.4988Q15.3157 23.9657 15.3157 24.595Q15.3157 25.1966 15.0832 25.6885Q14.7928 26.303 14.1394 26.7461Q12.9712 27.5356 10.5945 27.5356Q9.104 27.5356 8.12915 27.1409Q7.16235 26.7461 6.59839 26.1338Q6.04248 25.5215 5.84106 24.8931Q5.67993 24.6272 5.4624 24.45Q5.24487 24.2646 4.81787 24.2646L1.8772 24.2646Q1.72324 24.2646 1.59425 24.3214Q1.48024 24.3716 1.38574 24.4661Q1.29124 24.5606 1.24108 24.6746Q1.18433 24.8036 1.18433 24.9575Q1.19588 25.2156 1.23281 25.47Q1.4276 26.8119 2.32837 28.0513Q3.3999 29.5176 5.4624 30.428ZM88.284 30.9366Q88.432 31 88.6071 31L91.3464 31Q91.5311 31 91.6831 30.9294Q91.8029 30.8738 91.9023 30.7744Q92.0192 30.6575 92.0776 30.5163Q92.1359 30.3754 92.1359 30.2104L92.1359 8.36084Q92.1359 8.18652 92.0709 8.04137Q92.0126 7.91147 91.9023 7.80493Q91.7958 7.69459 91.6658 7.63636Q91.5207 7.57129 91.3464 7.57129L88.6071 7.57129Q88.4421 7.57129 88.3013 7.62958Q88.1601 7.68799 88.0432 7.80493Q87.9328 7.91147 87.8746 8.04137Q87.8095 8.18652 87.8095 8.36084L87.8095 30.2104Q87.8095 30.3754 87.8678 30.5163Q87.9262 30.6575 88.0432 30.7744Q88.1529 30.8804 88.284 30.9366ZM35.3858 30.9366Q35.5338 31 35.7089 31L38.4804 31Q38.6651 31 38.8171 30.9294Q38.9369 30.8738 39.0363 30.7744Q39.1532 30.6575 39.2116 30.5163Q39.2699 30.3754 39.2699 30.2104L39.2699 21.0017Q39.2699 19.5193 39.7292 18.6653Q40.1904 17.8144 40.9028 17.4345Q40.9121 17.4295 40.9215 17.4246Q41.5291 17.1005 42.1593 17.048Q42.2812 17.0378 42.404 17.0378Q42.8902 17.0378 43.3406 17.1651Q43.6587 17.255 43.9589 17.4084Q43.9715 17.4147 43.984 17.4212Q44.692 17.7862 45.1432 18.6492Q45.6025 19.5193 45.6025 21.0017L45.6025 30.2104Q45.6025 30.3754 45.6607 30.5163Q45.7192 30.6575 45.8361 30.7744Q45.9459 30.8804 46.077 30.9366Q46.2249 31 46.4001 31L49.1071 31Q49.2918 31 49.4438 30.9294Q49.5636 30.8738 49.663 30.7744Q49.7799 30.6575 49.8384 30.5163Q49.8966 30.3754 49.8966 30.2104L49.8966 21.0017Q49.8966 19.5193 50.3559 18.6492Q50.8232 17.771 51.5483 17.4084Q52.2734 17.0378 52.9985 17.0378Q53.8137 17.0378 54.4883 17.3458Q54.5537 17.3757 54.6178 17.4084Q54.6775 17.4383 54.7352 17.4716Q55.3781 17.8433 55.7699 18.6492Q56.1969 19.5193 56.1969 21.0017L56.1969 30.2104Q56.1969 30.3754 56.2552 30.5163Q56.3136 30.6575 56.4306 30.7744Q56.5404 30.8804 56.6715 30.9366Q56.8194 31 56.9945 31L59.6935 31Q59.8686 31 60.0166 30.9366Q60.1477 30.8804 60.2575 30.7744Q60.3744 30.6575 60.4328 30.5163Q60.4911 30.3754 60.4911 30.2104L60.4911 20.7358Q60.4911 18.2947 59.6774 16.6995Q59.0248 15.4007 57.981 14.636Q57.7362 14.4566 57.4699 14.3066Q57.0966 14.0942 56.701 13.9384Q55.611 13.509 54.352 13.509Q53.114 13.509 52.0295 13.9171Q51.5825 14.0852 51.1615 14.3228Q50.0618 14.9406 49.36 15.8616Q49.1467 16.1417 48.9701 16.4497Q48.3776 15.2484 47.4206 14.5377Q45.9837 13.4703 43.7253 13.509Q42.1059 13.5413 40.9296 14.1858Q39.7614 14.8303 39.0685 15.7568L39.0685 14.6289Q39.0685 14.4546 39.0035 14.3094Q38.9452 14.1795 38.8349 14.073Q38.7283 13.9627 38.5984 13.9044Q38.4533 13.8394 38.279 13.8394L35.7089 13.8394Q35.5439 13.8394 35.403 13.8976Q35.2619 13.9561 35.1449 14.073Q35.0346 14.1795 34.9764 14.3094Q34.9113 14.4546 34.9113 14.6289L34.9113 30.2104Q34.9113 30.3754 34.9696 30.5163Q35.028 30.6575 35.1449 30.7744Q35.2547 30.8804 35.3858 30.9366ZM66.6203 37.2098Q66.7611 37.2681 66.9261 37.2681L69.7298 37.2681Q69.9877 37.2681 70.1682 37.1498Q70.2414 37.1019 70.3019 37.0344Q70.3903 36.9427 70.4427 36.8337Q70.5194 36.6746 70.5194 36.4785L70.5194 28.9858Q70.6775 29.195 70.8533 29.388Q71.5645 30.169 72.5658 30.6858Q73.8226 31.3303 75.6031 31.3303Q77.3514 31.3303 78.6405 30.7422Q79.5968 30.2999 80.3225 29.6138Q80.575 29.375 80.7997 29.1067Q81.6778 28.0593 82.1371 26.6575Q82.5963 25.2556 82.6285 23.604Q82.6688 23.0159 82.6688 22.4197Q82.6688 21.8235 82.6285 21.2676Q82.5641 19.5515 82.1048 18.1335Q81.6456 16.7075 80.7835 15.6682Q80.5193 15.3467 80.2135 15.0714Q79.5307 14.4569 78.6405 14.073Q77.3514 13.509 75.6031 13.509Q73.6856 13.509 72.3966 14.2019Q71.1156 14.8948 70.326 15.9502L70.326 14.6289Q70.326 14.4328 70.2494 14.2737Q70.1969 14.1647 70.1085 14.073Q70.0422 14.0018 69.9625 13.9523Q69.7805 13.8394 69.5284 13.8394L66.9261 13.8394Q66.7611 13.8394 66.6203 13.8976Q66.4791 13.9561 66.3622 14.073Q66.2518 14.1795 66.1936 14.3094Q66.1285 14.4546 66.1285 14.6289L66.1285 36.4785Q66.1285 36.6528 66.1936 36.798Q66.2518 36.9279 66.3622 37.0344Q66.4791 37.1514 66.6203 37.2098ZM100.33 29.8972Q102.317 31.3303 105.337 31.3303Q107.182 31.3303 108.616 30.855Q110.058 30.3716 111.009 29.6465Q111.968 28.9214 112.475 28.1641Q112.991 27.4067 113.023 26.875Q113.041 26.7154 112.986 26.5858Q112.939 26.4734 112.838 26.3835Q112.78 26.3279 112.713 26.2876Q112.537 26.1821 112.298 26.1821L109.462 26.1821Q109.1 26.1821 108.914 26.2627Q108.737 26.3433 108.439 26.7461Q108.27 26.9717 107.875 27.3342Q107.48 27.6968 106.852 27.9788Q106.224 28.2607 105.305 28.2607Q104.393 28.2607 103.692 27.8766Q103.526 27.7854 103.371 27.6726Q103.135 27.498 102.933 27.2908Q102.443 26.7909 102.147 26.1016Q101.736 25.1267 101.704 23.9746L101.704 23.7087L112.661 23.7087Q112.899 23.7087 113.081 23.6081Q113.177 23.5554 113.257 23.4751Q113.374 23.3582 113.432 23.217Q113.491 23.0761 113.491 22.9111L113.491 22.2183Q113.491 19.6482 112.564 17.6904Q112.035 16.567 111.216 15.7251Q110.602 15.0938 109.825 14.6208Q108.012 13.509 105.337 13.509Q102.928 13.509 101.14 14.4839Q100.334 14.9248 99.6874 15.5338Q98.9038 16.2713 98.3522 17.2554Q97.3532 19.052 97.2162 21.5657Q97.184 21.8557 97.184 22.3713Q97.184 22.8789 97.2162 23.2092Q97.3745 26.8587 99.2618 28.9416Q99.3911 29.0842 99.5285 29.2195Q99.9057 29.591 100.33 29.8972ZM25.2548 30.9366Q25.4028 31 25.5779 31L28.3172 31Q28.5879 31 28.7733 30.8742Q28.8361 30.8315 28.8892 30.7744Q28.9841 30.6724 29.0376 30.5521Q29.1067 30.3966 29.1067 30.2104L29.1067 14.6289Q29.1067 14.4328 29.0301 14.2737Q28.9776 14.1647 28.8892 14.073Q28.8287 14.0055 28.7555 13.9576Q28.575 13.8394 28.3172 13.8394L25.5779 13.8394Q25.4129 13.8394 25.272 13.8976Q25.1309 13.9561 25.0139 14.073Q24.9036 14.1795 24.8454 14.3094Q24.7803 14.4546 24.7803 14.6289L24.7803 30.2104Q24.7803 30.3754 24.8386 30.5163Q24.897 30.6575 25.0139 30.7744Q25.1237 30.8804 25.2548 30.9366ZM108.995 20.9373L101.704 20.9373L101.704 20.8325Q101.704 19.5515 102.115 18.5767Q102.419 17.8686 102.936 17.39Q103.13 17.2097 103.355 17.062Q103.399 17.0329 103.444 17.0052Q104.239 16.5142 105.337 16.5142Q106.409 16.5142 107.194 16.9879Q107.254 17.0236 107.311 17.062Q107.546 17.2147 107.748 17.4022Q108.262 17.8776 108.568 18.5767Q108.995 19.5515 108.995 20.8325L108.995 20.9373ZM76.5941 27.1892Q75.8045 27.8015 74.3785 27.8015Q73.0653 27.8015 72.2355 27.2053Q71.7785 26.8738 71.4411 26.4477Q71.1718 26.1074 70.9786 25.7068Q70.7281 25.1728 70.6135 24.611Q70.5327 24.2151 70.5194 23.8054Q70.4872 23.177 70.4872 22.5164Q70.4872 21.8557 70.5194 21.2676Q70.538 20.9719 70.5829 20.6802Q70.6933 19.9626 70.9625 19.2695Q71.1576 18.7777 71.4676 18.3741Q71.7719 17.9776 72.1871 17.6663Q73.025 17.0378 74.3785 17.0378Q75.8045 17.0378 76.5941 17.6501Q76.8493 17.8481 77.0599 18.0855Q77.5008 18.5828 77.7462 19.2534Q78.1087 20.2444 78.1732 21.4287Q78.1933 21.9242 78.1933 22.4197Q78.1933 22.9152 78.1732 23.4106Q78.1087 24.595 77.7462 25.5859Q77.5008 26.2566 77.0599 26.7538Q76.8493 26.9913 76.5941 27.1892Z" fill="#FF6838" fill-opacity="1.000000" fill-rule="evenodd"/>
</svg>
