<?xml version="1.0" encoding="utf-8"?><svg viewBox="0 0 44 44" xmlns="http://www.w3.org/2000/svg" xmlns:xlink="http://www.w3.org/1999/xlink"><style>:root>svg{display:none}:root>svg:target{display:block}</style><svg class="aproducts__btn-image" viewBox="0 0 44 44" id="icon-asia" xmlns="http://www.w3.org/2000/svg"><defs><clipPath id="ab"><path fill-opacity="0" d="M0 0h44v44H0z"/></clipPath><clipPath id="aa"><path fill-opacity="0" d="M0 0h44v44H0z"/></clipPath></defs><path fill="none" d="M0 0h44v44H0z"/><g clip-path="url(#aa)"><path fill="none" d="M0 0h44v44H0z"/><g clip-path="url(#ab)"><path d="M15.132 13.567h2.124c.552 0 1 .448 1 1v1.465a.644.644 0 1 0 1.29 0v-1.465a2.291 2.291 0 0 0-2.29-2.29h-2.124a.984.984 0 0 1 0-1.965h4.711a2.275 2.275 0 0 0 2.272-2.273 2.275 2.275 0 0 0-2.272-2.272h-3.77a.644.644 0 1 0 0 1.29h3.77a.984.984 0 0 1 0 1.966h-4.711a2.275 2.275 0 0 0-2.273 2.272 2.275 2.275 0 0 0 2.273 2.272ZM7.389 17.893h2.108c.544 0 .987.442.987.987v1.454a.644.644 0 1 0 1.29 0V18.88a2.279 2.279 0 0 0-2.277-2.276H7.39a.972.972 0 0 1 0-1.942h2.465a.645.645 0 0 0 0-1.289H7.389a2.262 2.262 0 0 0-2.26 2.26 2.262 2.262 0 0 0 2.26 2.26Z"/><path d="M26.297 26.168a.645.645 0 1 1-1.29 0 .645.645 0 0 1 1.29 0ZM29.477 27.629a.645.645 0 1 1-1.29 0 .645.645 0 0 1 1.29 0ZM31.367 29.863a.645.645 0 1 1-1.289 0 .645.645 0 0 1 1.29 0ZM28.703 24.621a.644.644 0 1 1-1.289 0 .644.644 0 0 1 1.29 0ZM26.555 30.293a.645.645 0 1 1-1.29 0 .645.645 0 0 1 1.29 0Z" fill-rule="evenodd"/><path d="M42.911 22.811h-1.828l.904-1.868A2.507 2.507 0 0 0 44 18.49a2.507 2.507 0 0 0-2.102-2.47c-1.315-2.37-3.885-4.149-7.001-4.859v-.05a.644.644 0 0 0-1.264-.175 13.82 13.82 0 0 0-1.197-.1.644.644 0 0 0-1.163 0c-.405.017-.804.05-1.197.1a.644.644 0 0 0-1.264.176v.049c-3.116.71-5.686 2.49-7.001 4.859a2.506 2.506 0 0 0-2.093 2.686c-2.975.276-5.649 1.52-7.655 3.385h-4.05a.909.909 0 0 0-.69.318H5.43a2.118 2.118 0 0 0-1.957-1.337 2.106 2.106 0 0 0-2.082 2.397 2.107 2.107 0 0 0-1.066 3.104 2.106 2.106 0 0 0 1.778 3.229c.878 0 1.648-.554 1.958-1.337h1.704a.91.91 0 0 0 .586.623l2.02.686a10.898 10.898 0 0 0-.002 1.223c-.316.076-.61.207-.873.383a2.701 2.701 0 0 0-1.51-.46 2.721 2.721 0 0 0-2.717 2.719l.002.068h-.754c-.426 0-.803.24-.985.624a1.08 1.08 0 0 0 .144 1.157l1.934 2.35c.207.251.514.396.84.396h27.26a.644.644 0 1 0 0-1.29H4.545l-1.604-1.948h39.544l-1.603 1.949h-6.164a.645.645 0 1 0 0 1.289h6.258c.327 0 .633-.145.841-.397l1.933-2.35a1.08 1.08 0 0 0 .144-1.156 1.08 1.08 0 0 0-.984-.624h-.638a5.41 5.41 0 0 0 .64-3.671.645.645 0 0 0-.52-.52 5.409 5.409 0 0 0-5.008 1.731c-.37-.2-.79-.316-1.237-.324v-1.227h.688c1.09 0 1.977-.887 1.977-1.977v-.865h4.1c.6 0 1.088-.488 1.088-1.088V23.9c0-.6-.488-1.089-1.089-1.089ZM6.291 33.706H4.56l-.002-.068a1.43 1.43 0 0 1 2.053-1.284 2.7 2.7 0 0 0-.323 1.284c0 .023.002.046.003.068Zm32.225-1.784a4.115 4.115 0 0 1 3.184-1.195 4.119 4.119 0 0 1-1.005 2.98h-1.063l.881-.881a.645.645 0 0 0-.911-.912l-.914.914a2.71 2.71 0 0 0-.348-.718c.057-.064.115-.127.176-.188Zm-13.013-17.98a10.718 10.718 0 0 1 3.309-1.452v.663a.644.644 0 1 0 1.29 0v-.918a12.43 12.43 0 0 1 1.108-.106v1.024a.644.644 0 1 0 1.289 0V12.13c.373.02.743.054 1.109.106v.918a.644.644 0 1 0 1.289 0v-.663c1.206.309 2.333.799 3.309 1.452.95.637 1.724 1.406 2.288 2.256a2.524 2.524 0 0 0-.604.375 2.506 2.506 0 0 0-1.607-.587c-.595 0-1.163.215-1.607.587a2.506 2.506 0 0 0-1.607-.587c-.595 0-1.163.215-1.608.587a2.506 2.506 0 0 0-1.607-.587c-.594 0-1.162.215-1.607.587a2.506 2.506 0 0 0-1.607-.587c-.594 0-1.162.215-1.607.587a2.506 2.506 0 0 0-1.607-.587c-.594 0-1.162.215-1.607.587a2.521 2.521 0 0 0-.605-.375c.565-.85 1.339-1.619 2.29-2.256Zm-3.291 3.333c.43 0 .832.233 1.05.607a.645.645 0 0 0 1.114 0c.217-.374.62-.607 1.05-.607.43 0 .832.233 1.05.607a.645.645 0 0 0 1.115 0c.217-.374.619-.607 1.05-.607.43 0 .832.233 1.049.607a.644.644 0 0 0 1.115 0c.217-.374.62-.607 1.05-.607.43 0 .832.233 1.049.607a.644.644 0 0 0 1.115 0c.217-.374.62-.607 1.05-.607.43 0 .832.233 1.05.607a.645.645 0 0 0 1.114 0c.217-.374.62-.607 1.05-.607.43 0 .832.233 1.05.607a.644.644 0 0 0 1.114 0c.218-.374.62-.607 1.05-.607a1.215 1.215 0 0 1 0 2.427c-.43 0-.832-.232-1.05-.606a.645.645 0 0 0-1.114 0c-.218.374-.62.607-1.05.607-.43 0-.833-.233-1.05-.607a.645.645 0 0 0-1.115 0c-.217.374-.62.607-1.05.607-.43 0-.832-.233-1.049-.607a.645.645 0 0 0-1.115 0c-.217.374-.62.607-1.05.607-.43 0-.832-.233-1.05-.607a.645.645 0 0 0-1.114 0c-.218.374-.62.607-1.05.607-.43 0-.832-.233-1.05-.607a.645.645 0 0 0-1.114 0 1.221 1.221 0 0 1-.54.492 13.365 13.365 0 0 0-4.927-.942 1.215 1.215 0 0 1 1.202-1.37ZM8.392 23.38h2.472a11.78 11.78 0 0 0-.712.983h-1.76v-.983Zm-2.66 3.796H3.558a.645.645 0 0 0-.643.59.818.818 0 0 1-.81.747.816.816 0 0 1-.519-1.443.644.644 0 0 0 0-.993.813.813 0 1 1 1.33-.697.644.644 0 0 0 .642.59h2.176v1.206Zm.221-2.494H4.061a2.129 2.129 0 0 0-1.36-1.248.812.812 0 0 1 .772-1.073c.42 0 .776.328.811.746a.645.645 0 0 0 .642.591h2.177v.666h-.46a.909.909 0 0 0-.69.318Zm4.48 9.025H7.58a1.43 1.43 0 0 1 1.427-1.497 1.43 1.43 0 0 1 1.428 1.429l-.002.068Zm19.879 0h-2.244l-.002-.068a1.43 1.43 0 0 1 2.439-1.01 2.703 2.703 0 0 0-.196 1.01c0 .023.002.046.003.068Zm-.817-2.786a2.721 2.721 0 0 0-2.719 2.718c0 .023.002.046.003.068H11.722l.002-.068c0-1.273-.88-2.344-2.063-2.638a9.725 9.725 0 0 1-.016-.794l6.592 2.238a4.113 4.113 0 0 0 3.753-.556 4.106 4.106 0 0 0 1.732-3.375c0-.484-.083-.96-.247-1.412a.645.645 0 0 0-1.212.438c.113.312.17.64.17.974a2.83 2.83 0 0 1-1.195 2.327 2.83 2.83 0 0 1-2.587.383l-9.629-3.27v-2.301h10.55c.323 0 .641.054.946.16a.644.644 0 1 0 .427-1.216 4.142 4.142 0 0 0-1.373-.234h-5.845c2.056-2.676 5.438-4.427 9.256-4.427 6.253 0 11.34 4.695 11.34 10.467 0 .206-.006.412-.02.616-.389.108-.743.3-1.042.557a2.705 2.705 0 0 0-1.766-.655Zm4.959 2.786h-2.853a1.43 1.43 0 0 1 1.427-1.497c.787 0 1.428.641 1.428 1.429 0 .023 0 .046-.002.068Zm.404-2.486c-.102.053-.202.11-.297.175a2.707 2.707 0 0 0-.964-.413c.01-.193.016-.386.016-.58 0-.237-.01-.473-.025-.707h1.27v1.525Zm2.665 2.418c0 .023-.002.046-.003.068h-1.777l.002-.068a2.7 2.7 0 0 0-.313-1.266 1.43 1.43 0 0 1 2.09 1.266Zm0-5.92c0 .38-.309.688-.688.688h-3.407c-.098-.53-.232-1.05-.404-1.553h4.499v.865Zm5.188-2.154H32.493a11.52 11.52 0 0 0-.853-1.464h2.735a.644.644 0 1 0 0-1.289h-3.756a12.414 12.414 0 0 0-2.077-1.822 2.46 2.46 0 0 0 1.705-.585 2.506 2.506 0 0 0 1.607.588c.595 0 1.163-.215 1.608-.588a2.506 2.506 0 0 0 1.607.588c.594 0 1.162-.215 1.607-.588a2.506 2.506 0 0 0 1.607.588c.594 0 1.162-.215 1.607-.588.215.18.459.323.72.423l-.96 1.984h-2.267a.644.644 0 1 0 0 1.289h5.328v1.464Z"/></g></g></svg><svg viewBox="0 0 44 38.672" id="icon-burger" xmlns="http://www.w3.org/2000/svg"><path d="M44 19.336c0-1.69-1.09-3.128-2.602-3.653-.232-5.241-2.189-9.263-5.825-11.966C32.254 1.251 27.688 0 22 0 16.312 0 11.746 1.25 8.427 3.717 4.791 6.42 2.834 10.442 2.602 15.683A3.873 3.873 0 0 0 0 19.336c0 .99.374 1.893.988 2.578A3.851 3.851 0 0 0 0 24.492c0 1.7 1.103 3.146 2.63 3.663.553 5.89 5.56 10.517 11.636 10.517h15.468c6.076 0 11.084-4.627 11.636-10.517A3.873 3.873 0 0 0 44 24.492a3.85 3.85 0 0 0-.988-2.578A3.851 3.851 0 0 0 44 19.336ZM22 2.578c7.393 0 16.151 2.28 16.803 12.89H5.197C5.849 4.859 14.607 2.579 22 2.579ZM3.867 18.047h36.266c.71 0 1.289.578 1.289 1.289 0 .71-.578 1.289-1.29 1.289H3.868a1.29 1.29 0 0 1-1.289-1.29c0-.71.578-1.288 1.29-1.288Zm25.867 18.047H14.266c-4.581 0-8.383-3.368-9.016-7.735h1.195c.862 0 1.134.293 1.677.878.667.718 1.58 1.7 3.566 1.7 2 0 2.889-.993 3.538-1.718.513-.572.77-.86 1.618-.86.848 0 1.105.288 1.617.86.65.725 1.54 1.718 3.539 1.718 2 0 2.89-.993 3.538-1.718.513-.572.77-.86 1.618-.86.848 0 1.105.288 1.618.86.65.725 1.539 1.718 3.538 1.718 2 0 2.89-.993 3.539-1.718.513-.572.77-.86 1.618-.86h1.281c-.633 4.367-4.435 7.735-9.016 7.735ZM40.133 25.78h-2.664c-2 0-2.89.993-3.539 1.719-.512.572-.77.86-1.617.86-.848 0-1.106-.288-1.618-.86-.65-.726-1.539-1.719-3.539-1.719s-2.889.993-3.538 1.719c-.513.572-.77.86-1.618.86-.848 0-1.105-.288-1.618-.86-.65-.726-1.538-1.719-3.538-1.719-2 0-2.89.993-3.539 1.719-.512.572-.77.86-1.617.86-.862 0-1.135-.294-1.677-.878-.667-.718-1.58-1.7-3.566-1.7H3.867a1.29 1.29 0 0 1-1.289-1.29c0-.71.578-1.289 1.29-1.289h36.265a1.29 1.29 0 0 1 0 2.578Z"/><path d="M15.555 11.602a1.29 1.29 0 1 1-2.578 0 1.29 1.29 0 0 1 2.578 0ZM31.023 11.602a1.289 1.289 0 1 1-2.578 0 1.289 1.289 0 0 1 2.578 0ZM25.867 9.023a1.29 1.29 0 1 1-2.578 0 1.29 1.29 0 0 1 2.578 0ZM20.71 6.445a1.289 1.289 0 1 1-2.577 0 1.289 1.289 0 0 1 2.578 0Z" fill-rule="evenodd"/></svg><svg viewBox="0 0 20.001 19.333" id="icon-cart" xmlns="http://www.w3.org/2000/svg"><path d="m.75.75 2.08.356.964 11.34c.077.926.86 1.637 1.8 1.634h10.909a1.794 1.794 0 0 0 1.785-1.528l.949-6.482a1.328 1.328 0 0 0-1.135-1.501c-.064-.01-14.937-.014-14.937-.014M12.126 8.208h2.773M5.699 18.044c0 .298-.243.54-.544.54a.541.541 0 0 1-.544-.54.54.54 0 0 1 .544-.538.54.54 0 0 1 .544.538ZM16.98 18.044c0 .298-.244.54-.545.54a.541.541 0 0 1-.544-.54.54.54 0 0 1 .544-.538c.301 0 .545.242.545.538Z"/></svg><svg class="dproducts__btn-image" viewBox="0 0 44 43.489" id="icon-dish" xmlns="http://www.w3.org/2000/svg"><defs><clipPath id="da"><path fill-opacity="0" d="M0 0h44v43.489H0z"/></clipPath></defs><path fill="none" d="M0 0h44v43.489H0z"/><g clip-path="url(#da)"><path d="m31.158 14.657-.47-1.531c-.599-1.74-2.51-2.671-4.27-2.08a3.347 3.347 0 0 0-2.105 2.08l-.47 1.531a8.508 8.508 0 0 0-.244 3.987 3.754 3.754 0 0 0 1.954 2.613l-.527 11.65c-.07.65.143 1.3.587 1.785a2.583 2.583 0 0 0 3.78 0 2.248 2.248 0 0 0 .587-1.736l-.53-11.7a3.752 3.752 0 0 0 1.95-2.612 8.506 8.506 0 0 0-.242-3.987Zm-1.202 3.735a2.307 2.307 0 0 1-1.522 1.731.725.725 0 0 0-.474.711l.557 12.236a.832.832 0 0 1-.22.657 1.142 1.142 0 0 1-1.594 0 .863.863 0 0 1-.216-.705l.553-12.188a.725.725 0 0 0-.474-.71 2.307 2.307 0 0 1-1.522-1.732 7.069 7.069 0 0 1 .202-3.31l.47-1.532a1.908 1.908 0 0 1 3.568 0l.47 1.532a7.077 7.077 0 0 1 .202 3.31ZM19.8 10.872a.73.73 0 0 0-.733.725v6.223l-1.986 1.963a.72.72 0 0 0-.214.548l.641 12.685a.981.981 0 0 1-.277.738c-.401.4-1.055.403-1.46.007l-.007-.007a.98.98 0 0 1-.277-.738l.646-12.685a.72.72 0 0 0-.214-.548l-1.986-1.963v-6.223a.73.73 0 0 0-.733-.725.73.73 0 0 0-.733.725v6.524a.72.72 0 0 0 .214.512l1.97 1.948-.625 12.364c-.067 1.351.987 2.5 2.354 2.565 1.366.066 2.528-.976 2.594-2.326.004-.08.004-.16 0-.239l-.625-12.364 1.97-1.948a.72.72 0 0 0 .214-.512v-6.524a.73.73 0 0 0-.733-.725Z"/><path d="M15.4 10.872a.73.73 0 0 0-.733.725v5.799c0 .4.328.724.733.724a.73.73 0 0 0 .733-.724v-5.799a.73.73 0 0 0-.733-.725ZM17.6 10.872a.73.73 0 0 0-.733.725v5.799c0 .4.328.724.733.724a.73.73 0 0 0 .733-.724v-5.799a.73.73 0 0 0-.733-.725Z"/><path d="M22 0C9.85 0 0 9.735 0 21.745c0 12.009 9.85 21.744 22 21.744s22-9.735 22-21.744C43.986 9.74 34.145.014 22 0Zm0 42.04c-11.34 0-20.533-9.087-20.533-20.295C1.467 10.536 10.66 1.45 22 1.45c11.34 0 20.533 9.086 20.533 20.295C42.52 32.948 33.335 42.027 22 42.04Z"/><path d="M24.38 35.351a.731.731 0 0 0-.829-.648h.003a13.618 13.618 0 0 1-3.108 0 .732.732 0 0 0-.814.635.727.727 0 0 0 .643.805c1.145.133 2.302.133 3.447 0a.727.727 0 0 0 .658-.792ZM33.22 12.405a.74.74 0 0 0-1.033-.09l-.003.003a.72.72 0 0 0-.088 1.02 12.936 12.936 0 0 1-.778 17.648.72.72 0 0 0-.002 1.025.74.74 0 0 0 1.037.002 14.374 14.374 0 0 0 .867-19.608ZM17.086 9.582l-.002-.001h-.002.004Z"/><path d="M25.46 7.653a14.96 14.96 0 0 0-8.633.524.722.722 0 0 0 .258 1.404.741.741 0 0 0 .256-.047 13.47 13.47 0 0 1 7.773-.472.734.734 0 0 0 .886-.534.724.724 0 0 0-.54-.875ZM12.65 30.95a12.887 12.887 0 0 1-3.85-9.205 12.85 12.85 0 0 1 2.523-7.675.72.72 0 0 0-.145-1.015.74.74 0 0 0-1.027.144l-.013.017a14.371 14.371 0 0 0 1.472 18.76.74.74 0 0 0 1.039 0 .72.72 0 0 0 0-1.026Z"/></g></svg><svg viewBox="0 0 9.977 20.526" id="icon-facebook" xmlns="http://www.w3.org/2000/svg"><path d="M2.547 20.526v-9.631H0V7.427h2.547V4.465C2.547 2.137 4.05 0 7.517 0 8.922 0 9.96.135 9.96.135l-.082 3.238s-1.058-.01-2.213-.01c-1.25 0-1.45.576-1.45 1.532v2.532h3.763l-.164 3.468h-3.6v9.631H2.547Z"/></svg><svg viewBox="0 0 19.5 19.5" id="icon-instagram" xmlns="http://www.w3.org/2000/svg"><path d="M9.748 6.499A3.258 3.258 0 0 0 6.496 9.75a3.258 3.258 0 0 0 3.252 3.252 3.258 3.258 0 0 0 3.251-3.252 3.258 3.258 0 0 0-3.251-3.251Zm9.751 3.251c0-1.346.013-2.68-.063-4.025-.076-1.56-.432-2.946-1.573-4.088C16.719.493 15.336.14 13.775.064 12.428-.01 11.094.001 9.75.001 8.404 0 7.07-.011 5.725.064 4.165.14 2.78.496 1.637 1.637.493 2.781.14 4.164.064 5.725-.01 7.072.001 8.406.001 9.75c0 1.344-.012 2.68.063 4.025.076 1.56.432 2.946 1.573 4.088 1.144 1.144 2.527 1.497 4.088 1.573 1.347.076 2.681.063 4.025.063 1.346 0 2.68.013 4.025-.063 1.56-.076 2.946-.432 4.088-1.573 1.144-1.144 1.497-2.527 1.573-4.088.078-1.344.063-2.679.063-4.025Zm-9.751 5.003A4.996 4.996 0 0 1 4.745 9.75a4.996 4.996 0 0 1 5.003-5.003A4.996 4.996 0 0 1 14.75 9.75a4.995 4.995 0 0 1-5.002 5.003Zm5.207-9.042a1.167 1.167 0 0 1-1.168-1.169c0-.646.522-1.168 1.168-1.168a1.167 1.167 0 0 1 .827 1.995 1.168 1.168 0 0 1-.827.342Z"/></svg><svg viewBox="0 0 24 24" id="icon-location" xmlns="http://www.w3.org/2000/svg"><path fill="none" d="M0 0h24v24H0z"/><path d="M12 8a2.5 2.5 0 1 0 0 5 2.5 2.5 0 0 0 0-5Z"/><path d="M4.5 10.563C4.5 6.387 7.857 3 12 3c4.142 0 7.5 3.387 7.5 7.563C19.5 15.898 13.198 21 12 21c-1.199 0-7.5-5.102-7.5-10.437Z"/></svg><svg viewBox="0 0 24 24" id="icon-message" xmlns="http://www.w3.org/2000/svg"><path fill="none" d="M0 0h24v24H0z"/><path d="m17.903 8.851-4.444 3.613c-.84.666-2.02.666-2.86 0L6.12 8.851"/><path d="M22 15.438V8.57C22 5.5 19.95 3 16.909 3H7.09C4.05 3 2 5.499 2 8.57v6.868C2 18.51 4.05 21.008 7.091 21h9.818C19.95 21.008 22 18.51 22 15.438Z"/></svg><svg viewBox="0 0 24 24" id="icon-phone" xmlns="http://www.w3.org/2000/svg"><path fill="none" d="M0 0h24v24H0z"/><path d="M14.353 2.5a7.97 7.97 0 0 1 7.04 7.032M14.353 6.043a4.426 4.426 0 0 1 3.5 3.5M18.465 14.385c2.449 2.448 3.857 2.938.754 6.04-.389.312-2.858 4.07-11.535-4.605C-.993 7.144 2.762 4.672 3.074 4.284c3.11-3.11 3.593-1.695 6.041.753 2.54 2.54-2.072 3.447 1.916 7.435 3.99 3.988 4.894-.625 7.434 1.913Z"/></svg><svg class="jproducts__btn-image" viewBox="0 0 44 44" id="icon-pizza" xmlns="http://www.w3.org/2000/svg"><defs><clipPath id="ja"><path transform="matrix(1 0 0 -1 0 44)" fill-opacity="0" d="M0 0h44v44H0z"/></clipPath></defs><path fill="none" d="M0 44h44V0H0z"/><g clip-path="url(#ja)"><path d="M43.745 43.752a.859.859 0 0 1-.892.198L7.159 31.223a4.698 4.698 0 0 1-4.256.338A4.707 4.707 0 0 1 .359 25.42a46.082 46.082 0 0 1 10.038-15.023A46.08 46.08 0 0 1 25.42.358a4.708 4.708 0 0 1 6.142 2.544 4.687 4.687 0 0 1-.025 3.65l12.418 36.31a.86.86 0 0 1-.21.89ZM12.563 31.325l3.783 1.349a2.186 2.186 0 0 0-.264-3.235 2.176 2.176 0 0 0-1.62-.434 2.177 2.177 0 0 0-1.451.838c-.329.427-.485.95-.448 1.482ZM29.974 3.56a2.985 2.985 0 0 0-3.896-1.614C15.075 6.504 6.505 15.074 1.947 26.077a2.963 2.963 0 0 0 0 2.282 2.963 2.963 0 0 0 1.614 1.614 2.963 2.963 0 0 0 2.282 0 2.963 2.963 0 0 0 1.614-1.613 38.432 38.432 0 0 1 8.373-12.531 38.433 38.433 0 0 1 12.53-8.373 2.985 2.985 0 0 0 1.614-3.896Zm7.635 26.06a2.176 2.176 0 0 0-1.685.855 2.176 2.176 0 0 0-.434 1.62 2.193 2.193 0 0 0 2.458 1.885 2.19 2.19 0 0 0 1.012-.41l-1.35-3.95Zm1.922 5.621a3.91 3.91 0 1 1-2.493-7.29l-1.708-4.995-1.964 1.507a.86.86 0 0 1-1.047-1.364l2.424-1.86-4.442-12.99a4.68 4.68 0 0 1-1.282.795C19.91 12.816 12.817 19.91 9.044 29.017c-.13.317-.294.611-.482.882l2.301.82c.08-.693.347-1.354.783-1.922a3.883 3.883 0 0 1 2.591-1.496 3.88 3.88 0 0 1 2.89.774 3.884 3.884 0 0 1 1.496 2.591c.123.93-.094 1.85-.581 2.613l10.682 3.809.405-.978a.86.86 0 0 1 1.588.658l-.372.898 11.406 4.066-2.22-6.491Z"/><path d="M9.281 20.945a.859.859 0 1 1 0 0ZM7.974 23.08a40.676 40.676 0 0 0-2.237 4.567.86.86 0 1 1-1.588-.657 42.39 42.39 0 0 1 2.332-4.761.86.86 0 1 1 1.493.851ZM26.893 33.001a3.918 3.918 0 0 1-4.386-3.365 3.914 3.914 0 0 1 3.88-4.42 3.918 3.918 0 0 1 3.871 3.4A3.914 3.914 0 0 1 26.893 33Zm1.661-4.161a2.195 2.195 0 0 0-2.458-1.886 2.193 2.193 0 0 0-1.885 2.457 2.194 2.194 0 0 0 2.457 1.886 2.193 2.193 0 0 0 1.886-2.457ZM26.669 22.312a3.918 3.918 0 0 1-4.386-3.365 3.883 3.883 0 0 1 .774-2.891 3.884 3.884 0 0 1 3.105-1.53 3.918 3.918 0 0 1 3.872 3.4 3.914 3.914 0 0 1-3.365 4.386Zm1.661-4.162a2.195 2.195 0 0 0-2.457-1.886 2.178 2.178 0 0 0-1.452.838 2.176 2.176 0 0 0-.434 1.62 2.195 2.195 0 0 0 2.458 1.886 2.193 2.193 0 0 0 1.885-2.458ZM21.001 25.872l-2.641.348a.86.86 0 1 1-.225-1.704l2.641-.348a.86.86 0 0 1 .225 1.704ZM19.662 19.53l-.234 1.772a.86.86 0 1 1-1.704-.224l.234-1.773a.86.86 0 1 1 1.704.225Z"/></g></svg><svg viewBox="0 0 20.267 20.502" id="icon-search" xmlns="http://www.w3.org/2000/svg"><ellipse cx="9.739" cy="9.634" rx="8.989" ry="8.884"/><path d="m15.99 16.275 3.524 3.474"/></svg><svg class="lproducts__btn-image" viewBox="0 0 44 44" id="icon-sendvich" xmlns="http://www.w3.org/2000/svg"><defs><clipPath id="la"><path fill-opacity="0" d="M0 0h44v44H0z"/></clipPath></defs><path fill="none" d="M0 0h44v44H0z"/><g clip-path="url(#la)"><path d="M41.8 6.6h-1.467V5.133a2.2 2.2 0 0 0-2.2-2.2h-1.747L35.326.811A1.457 1.457 0 0 0 34.012 0H33c-.81 0-1.467.657-1.467 1.467v1.466h-8.066a2.2 2.2 0 0 0-2.2 2.2V6.6H19.8a2.2 2.2 0 0 0-2.2 2.2v1.467c0 .81.657 1.466 1.467 1.466h.077l.858 7.577-3.533-.83a11.096 11.096 0 0 0-.576-.813L14.646 12.3a.733.733 0 0 0-.713-.568H9.72C7.732 9.981 5.382 9.19 3.61 9.711L2.532 8.537a1.448 1.448 0 0 0-1.605-.366c-.56.216-.93.755-.928 1.355v32.289A2.188 2.188 0 0 0 2.185 44h35.948c.373 0 .686-.28.728-.65l3.593-31.617h.08c.81 0 1.466-.657 1.466-1.466V8.8a2.2 2.2 0 0 0-2.2-2.2ZM33 1.467h1.013l.734 1.466H33V1.467ZM22.733 5.133c0-.405.329-.733.734-.733h14.666c.405 0 .734.328.734.733V6.6H22.733V5.133Zm-2.053 15.84.046.009.593.14.397 4.162a6.759 6.759 0 0 0-3.94-1.242 6.28 6.28 0 0 0-.411-3.848l3.315.78Zm1.433 6.487.01.008c.265.245.517.505.755.779a8.684 8.684 0 0 1 1.876 3.387c.124.437.188.89.19 1.344l-6.849-7.47c1.523.17 2.942.86 4.018 1.952Zm-7.728-9.32v-.002c1.582 1.819 2.32 4.003 1.97 5.472l-7.463-8.137c1.505-.336 3.795.721 5.493 2.667Zm-1.038-4.94.586 2.497a9.347 9.347 0 0 0-1.913-1.154 11.558 11.558 0 0 0-.928-1.343h2.255Zm-3.687.546h.003c.06.07.11.146.17.22a3.992 3.992 0 0 0-2.012.338l-3.015-3.288c1.474.021 3.398 1.058 4.854 2.73Zm21.077 28.356a.717.717 0 0 1-.656.431H2.185a.719.719 0 0 1-.718-.718L1.453 9.533l14.72 16.048v.004l8.644 9.424.01.011 4.74 5.172c.018.022.035.044.055.065l.983 1.072a.716.716 0 0 1 .132.773Zm-4.54-7.757c.135-.438.203-.894.203-1.352.385.325.744.68 1.074 1.061.41.468.773.975 1.086 1.513.428.72.73 1.507.895 2.329l-3.257-3.551Zm11.281 8.188h-5.342c.275-.76.1-1.61-.45-2.2l-.74-.806a6.69 6.69 0 0 0-.571-3.594h7.854l-.75 6.6Zm.917-8.066h-8.8a11.218 11.218 0 0 0-1.009-1.375 10.687 10.687 0 0 0-2.512-2.136 10.145 10.145 0 0 0-2.09-3.676c-.22-.25-.44-.482-.671-.706l-.58-6.11a.733.733 0 0 0-.56-.644l-.65-.154-.154-1.333h18.86l-1.834 16.134Zm2-17.6H21.203l-.58-5.134h20.357l-.583 5.134Zm2.138-6.6H19.067V8.8c0-.405.328-.733.733-.733h22c.405 0 .733.328.733.733v1.467Z"/><path d="M31.1 32.267c.042 0 .083-.006.124-.008.011 0 .023.008.033.008a.703.703 0 0 0 .11-.016 3.967 3.967 0 0 0 2.899-1.567 5.101 5.101 0 0 0 .714-4.475c-.102-.38-.195-.753-.285-1.113-.572-2.293-1.119-4.456-3.435-4.553-.024 0-.046-.004-.07-.004-.023 0-.057-.006-.09-.006-2.591 0-4.7 2.632-4.7 5.867s2.109 5.867 4.7 5.867Zm.568-10.157c.758.298 1.092 1.291 1.604 3.341.092.367.187.751.293 1.14a3.656 3.656 0 0 1-.464 3.2 2.59 2.59 0 0 1-.876.734 10.657 10.657 0 0 0-.733-3.68c-.073-.23-.147-.45-.211-.66-.427-1.389.073-3.188.387-4.075Zm-1.576.11a8.048 8.048 0 0 0-.212 4.393c.068.22.143.448.22.685.367 1.12.807 2.472.627 3.468-1.607-.25-2.86-2.112-2.86-4.366 0-1.947.935-3.6 2.225-4.18ZM3.881 38.563l-.518.518A.733.733 0 1 0 4.4 40.118l.518-.518a.733.733 0 0 0-1.037-1.037ZM10.893 33.626a.734.734 0 0 0-1.038-1.037l-.518.518a.733.733 0 1 0 1.037 1.038l.519-.519ZM4.4 31.748l-.519.519a.733.733 0 1 0 1.037 1.037l.519-.519A.733.733 0 0 0 4.4 31.748ZM4.4 26.615l-.519.518a.733.733 0 1 0 1.037 1.037l.519-.518A.733.733 0 0 0 4.4 26.615ZM11 38.563l-.518.518a.733.733 0 1 0 1.036 1.037l.519-.518A.733.733 0 0 0 11 38.563ZM16.348 38.563l-.518.518a.733.733 0 1 0 1.037 1.037l.518-.518a.733.733 0 0 0-1.037-1.037Z"/></g></svg><svg viewBox="0 0 14.445 13.649" id="icon-telegram" xmlns="http://www.w3.org/2000/svg"><path d="M8.942 13.65a.694.694 0 0 1-.616-.36L6.285 9.432a.622.622 0 0 1 .05-.661L9.63 4.549 5.162 7.663a.725.725 0 0 1-.7.047L.38 5.78a.646.646 0 0 1-.379-.617.653.653 0 0 1 .449-.574L13.519.04a.719.719 0 0 1 .724.15c.19.179.252.446.16.684l-4.816 12.35a.683.683 0 0 1-.645.425Z"/></svg><svg viewBox="0 0 20.526 16.675" id="icon-twitter" xmlns="http://www.w3.org/2000/svg"><path d="M20.526 1.981a8.442 8.442 0 0 1-2.422.651 4.196 4.196 0 0 0 1.85-2.319 8.303 8.303 0 0 1-2.67 1.017A4.197 4.197 0 0 0 14.212 0a4.205 4.205 0 0 0-4.206 4.208c0 .326.04.652.104.965A11.954 11.954 0 0 1 1.436.77a4.176 4.176 0 0 0-.573 2.124c0 1.46.743 2.748 1.875 3.505a4.243 4.243 0 0 1-1.902-.535v.052a4.207 4.207 0 0 0 3.372 4.129 4.46 4.46 0 0 1-1.107.143c-.274 0-.533-.027-.795-.064a4.214 4.214 0 0 0 3.933 2.918 8.43 8.43 0 0 1-5.223 1.798c-.352 0-.678-.012-1.016-.051a11.912 11.912 0 0 0 6.46 1.886c7.737 0 11.97-6.408 11.97-11.97 0-.183 0-.366-.013-.549a9.06 9.06 0 0 0 2.11-2.175Z"/></svg></svg>