<svg width="17.000000" height="17.000000" viewBox="0 0 17 17" fill="none" xmlns="http://www.w3.org/2000/svg" xmlns:xlink="http://www.w3.org/1999/xlink">
	<desc>
			Created with Pixso.
	</desc>
	<defs/>
	<path id="Stroke 1" d="M0 0L1.79 0.31L2.63 10.49C2.69 11.32 3.37 11.96 4.18 11.95L13.62 11.95C14.39 11.96 15.05 11.37 15.16 10.58L15.98 4.77C16.07 4.12 15.63 3.51 15 3.42C14.95 3.41 2.08 3.41 2.08 3.41" stroke="#FFFFFF" stroke-opacity="1.000000" stroke-width="1.500000" stroke-linejoin="round" stroke-linecap="round"/>
	<path id="Stroke 3" d="M9.83 6.69L12.23 6.69" stroke="#FFFFFF" stroke-opacity="1.000000" stroke-width="1.500000" stroke-linejoin="round" stroke-linecap="round"/>
	<path id="Stroke 5" d="M3.8 15.03C4.06 15.03 4.27 15.24 4.27 15.51C4.27 15.78 4.06 15.99 3.8 15.99C3.54 15.99 3.33 15.78 3.33 15.51C3.33 15.24 3.54 15.03 3.8 15.03Z" fill="#363853" fill-opacity="1.000000" fill-rule="evenodd"/>
	<path id="Stroke 5" d="M4.27 15.51C4.27 15.78 4.06 15.99 3.8 15.99C3.54 15.99 3.33 15.78 3.33 15.51C3.33 15.24 3.54 15.03 3.8 15.03C4.06 15.03 4.27 15.24 4.27 15.51Z" stroke="#FFFFFF" stroke-opacity="1.000000" stroke-width="1.500000" stroke-linejoin="round"/>
	<path id="Stroke 7" d="M13.56 15.03C13.82 15.03 14.03 15.24 14.03 15.51C14.03 15.78 13.82 15.99 13.56 15.99C13.3 15.99 13.09 15.78 13.09 15.51C13.09 15.24 13.3 15.03 13.56 15.03Z" fill="#363853" fill-opacity="1.000000" fill-rule="evenodd"/>
	<path id="Stroke 7" d="M14.03 15.51C14.03 15.78 13.82 15.99 13.56 15.99C13.3 15.99 13.09 15.78 13.09 15.51C13.09 15.24 13.3 15.03 13.56 15.03C13.82 15.03 14.03 15.24 14.03 15.51Z" stroke="#FFFFFF" stroke-opacity="1.000000" stroke-width="1.500000" stroke-linejoin="round"/>
</svg>
