<svg width="18.000000" height="18.000000" viewBox="0 0 18 18" fill="none" xmlns="http://www.w3.org/2000/svg" xmlns:xlink="http://www.w3.org/1999/xlink">
	<desc>
			Created with Pixso.
	</desc>
	<defs>
		<clipPath id="clip669_570">
			<rect id="close 1" width="18.000000" height="18.000000" fill="white" fill-opacity="0"/>
		</clipPath>
	</defs>
	<rect id="close 1" width="18.000000" height="18.000000" fill="#FFFFFF" fill-opacity="0"/>
	<g clip-path="url(#clip669_570)">
		<path id="Vector" d="M10.05 9L17.77 1.28C18.06 1 18.07 0.52 17.78 0.22C17.5 -0.07 17.02 -0.08 16.72 0.21C16.72 0.21 16.71 0.22 16.71 0.22L8.99 7.94L1.27 0.22C0.98 -0.06 0.5 -0.06 0.21 0.24C-0.07 0.53 -0.07 0.99 0.21 1.28L7.93 9L0.21 16.72C-0.08 17.01 -0.08 17.48 0.21 17.78C0.51 18.07 0.98 18.07 1.27 17.78L8.99 10.06L16.71 17.78C17 18.06 17.48 18.06 17.77 17.76C18.05 17.47 18.05 17.01 17.77 16.72L10.05 9Z" fill="#363853" fill-opacity="1.000000" fill-rule="nonzero"/>
	</g>
</svg>
