<svg width="47.000000" height="47.000000" viewBox="0 0 47 47" fill="none" xmlns="http://www.w3.org/2000/svg" xmlns:xlink="http://www.w3.org/1999/xlink">
	<desc>
			Created with Pixso.
	</desc>
	<defs>
		<clipPath id="clip669_558">
			<rect id="ic-filter 1" width="31.885714" height="36.000000" transform="translate(8.000000 5.000000)" fill="white" fill-opacity="0"/>
		</clipPath>
	</defs>
	<rect id="Rectangle 161" rx="3.000000" width="47.000000" height="47.000000" fill="#FAEDED" fill-opacity="1.000000"/>
	<rect id="ic-filter 1" width="31.885714" height="36.000000" transform="translate(8.000000 5.000000)" fill="#FFFFFF" fill-opacity="0"/>
	<g clip-path="url(#clip669_558)">
		<path id="Vector" d="M21.78 33.12L9.13 33.12C8.51 33.12 8 33.62 8 34.25C8 34.87 8.51 35.37 9.13 35.37L21.78 35.37C22.3 37.94 24.6 39.87 27.35 39.87C30.11 39.87 32.41 37.94 32.93 35.37L38.74 35.37C39.37 35.37 39.88 34.87 39.88 34.25C39.88 33.62 39.37 33.12 38.74 33.12L32.93 33.12C32.41 30.55 30.11 28.62 27.35 28.62C24.6 28.62 22.3 30.55 21.78 33.12ZM30.77 34.25C30.77 36.11 29.24 37.62 27.35 37.62C25.47 37.62 23.94 36.11 23.94 34.25C23.94 32.38 25.47 30.87 27.35 30.87C29.24 30.87 30.77 32.38 30.77 34.25ZM10.39 21.87L9.13 21.87C8.51 21.87 8 22.37 8 23C8 23.62 8.51 24.12 9.13 24.12L10.39 24.12C10.91 26.69 13.21 28.62 15.97 28.62C18.72 28.62 21.02 26.69 21.55 24.12L38.74 24.12C39.37 24.12 39.88 23.62 39.88 23C39.88 22.37 39.37 21.87 38.74 21.87L21.55 21.87C21.02 19.3 18.72 17.37 15.97 17.37C13.21 17.37 10.91 19.3 10.39 21.87ZM19.38 23C19.38 24.86 17.85 26.37 15.97 26.37C14.08 26.37 12.55 24.86 12.55 23C12.55 21.13 14.08 19.62 15.97 19.62C17.85 19.62 19.38 21.13 19.38 23ZM26.33 10.62L9.13 10.62C8.51 10.62 8 11.12 8 11.75C8 12.37 8.51 12.87 9.13 12.87L26.33 12.87C26.86 15.44 29.15 17.37 31.91 17.37C34.66 17.37 36.96 15.44 37.49 12.87L38.74 12.87C39.37 12.87 39.88 12.37 39.88 11.75C39.88 11.12 39.37 10.62 38.74 10.62L37.49 10.62C36.96 8.05 34.66 6.12 31.91 6.12C29.15 6.12 26.86 8.05 26.33 10.62ZM35.33 11.75C35.33 13.61 33.8 15.12 31.91 15.12C30.02 15.12 28.49 13.61 28.49 11.75C28.49 9.88 30.02 8.37 31.91 8.37C33.8 8.37 35.33 9.88 35.33 11.75Z" fill="#FF6838" fill-opacity="1.000000" fill-rule="nonzero"/>
	</g>
</svg>
