<svg width="20.000854" height="19.333252" viewBox="0 0 20.0009 19.3333" fill="none" xmlns="http://www.w3.org/2000/svg"
   xmlns:xlink="http://www.w3.org/1999/xlink">
   <path id="Stroke 1"
      d="M0.750549 0.750488L2.83057 1.1062L3.79358 12.446C3.87054 13.3723 4.65356 14.083 5.59357 14.0801L16.5026 14.0801C17.3996 14.082 18.1606 13.4297 18.2876 12.552L19.2366 6.07007C19.3426 5.34546 18.8336 4.67334 18.1016 4.5686C18.0376 4.55981 3.16455 4.55493 3.16455 4.55493"
      stroke="#363853" stroke-opacity="1.000000" stroke-width="1.500000" stroke-linejoin="round"
      stroke-linecap="round" />
   <path id="Stroke 3" d="M12.1255 8.20801L14.8985 8.20801" stroke="#363853" stroke-opacity="1.000000"
      stroke-width="1.500000" stroke-linejoin="round" stroke-linecap="round" />
   <path id="Stroke 5"
      d="M5.69879 18.0442C5.69879 18.342 5.45581 18.5833 5.15485 18.5833C4.85388 18.5833 4.6109 18.342 4.6109 18.0442C4.6109 17.7476 4.85388 17.5063 5.15485 17.5063C5.45581 17.5063 5.69879 17.7476 5.69879 18.0442Z"
      stroke="#363853" stroke-opacity="1.000000" stroke-width="1.500000" stroke-linejoin="round" />
   <path id="Stroke 7"
      d="M16.9802 18.0442C16.9802 18.342 16.7361 18.5833 16.4352 18.5833C16.1342 18.5833 15.8912 18.342 15.8912 18.0442C15.8912 17.7476 16.1342 17.5063 16.4352 17.5063C16.7361 17.5063 16.9802 17.7476 16.9802 18.0442Z"
      stroke="#363853" stroke-opacity="1.000000" stroke-width="1.500000" stroke-linejoin="round" />
</svg>