<svg width="14.444702" height="13.649475" viewBox="0 0 14.4447 13.6495" fill="none" xmlns="http://www.w3.org/2000/svg"
   xmlns:xlink="http://www.w3.org/1999/xlink">
   <defs />
   <path
      d="M8.94189 13.6495C8.68256 13.6495 8.44324 13.511 8.32629 13.29L6.28467 9.43158C6.17255 9.21973 6.19183 8.96619 6.33423 8.77057L9.62976 4.54944L5.16211 7.66296C4.95508 7.79816 4.68677 7.81506 4.46252 7.70978L0.380066 5.78119C0.135193 5.66486 -0.0140991 5.42242 0.0010376 5.1637C0.0155029 4.90503 0.192261 4.67883 0.449524 4.58978L13.519 0.0397339C13.77 -0.0466919 14.0527 0.00982666 14.2433 0.18988C14.4331 0.368652 14.4951 0.636475 14.4022 0.874329L9.5871 13.2244C9.49219 13.4675 9.25354 13.6345 8.97974 13.6481C8.96735 13.6488 8.95428 13.6495 8.94189 13.6495Z"
      fill="#000000" fill-opacity="1.000000" fill-rule="nonzero" />
</svg>