<svg width="44.000000" height="38.671875" viewBox="0 0 44 38.6719" fill="none" xmlns="http://www.w3.org/2000/svg"
   xmlns:xlink="http://www.w3.org/1999/xlink">
   <path id="Vector"
      d="M44 19.3359C44 17.6467 42.9108 16.2079 41.3983 15.6825C41.1658 10.4418 39.2092 6.41986 35.573 3.71722C32.2543 1.25067 27.6877 0 22 0C16.3123 0 11.7457 1.25067 8.427 3.71729C4.79083 6.41986 2.83423 10.4418 2.60175 15.6826C1.08917 16.2079 0 17.6467 0 19.3359C0 20.3257 0.374146 21.2293 0.987854 21.9141C0.374146 22.5988 0 23.5024 0 24.4922C0 26.1918 1.1026 27.6378 2.62958 28.1551C3.1825 34.0454 8.1897 38.6719 14.2656 38.6719L29.7344 38.6719C35.8103 38.6719 40.8175 34.0454 41.3704 28.1551C42.8974 27.6378 44 26.1918 44 24.4922C44 23.5024 43.6259 22.5988 43.0121 21.9141C43.6259 21.2293 44 20.3257 44 19.3359ZM22 2.57812C29.3933 2.57812 38.1512 4.85718 38.8035 15.4688L5.19653 15.4688C5.84875 4.85718 14.6067 2.57812 22 2.57812ZM3.86719 18.0469L40.1328 18.0469C40.8436 18.0469 41.4219 18.6251 41.4219 19.3359C41.4219 20.0468 40.8436 20.625 40.1328 20.625L3.86719 20.625C3.15637 20.625 2.57812 20.0468 2.57812 19.3359C2.57812 18.6251 3.15637 18.0469 3.86719 18.0469ZM29.7344 36.0938L14.2656 36.0938C9.68457 36.0938 5.883 32.7264 5.24957 28.3594L6.44531 28.3594C7.30707 28.3594 7.57941 28.6525 8.12189 29.2366C8.78857 29.9545 9.70166 30.9375 11.6875 30.9375C13.6874 30.9375 14.5767 29.9444 15.226 29.2192C15.7387 28.6467 15.996 28.3594 16.8438 28.3594C17.6915 28.3594 17.9488 28.6467 18.4615 29.2192C19.1108 29.9444 20.0001 30.9375 22 30.9375C23.9999 30.9375 24.8892 29.9444 25.5385 29.2192C26.0511 28.6467 26.3085 28.3594 27.1562 28.3594C28.004 28.3594 28.2614 28.6467 28.774 29.2192C29.4233 29.9444 30.3126 30.9375 32.3125 30.9375C34.3124 30.9375 35.2017 29.9444 35.851 29.2192C36.3636 28.6467 36.621 28.3594 37.4688 28.3594L38.7504 28.3594C38.117 32.7264 34.3154 36.0938 29.7344 36.0938ZM40.1328 25.7812L37.4688 25.7812C35.4689 25.7812 34.5796 26.7744 33.9303 27.4995C33.4176 28.072 33.1603 28.3594 32.3125 28.3594C31.4647 28.3594 31.2074 28.072 30.6947 27.4995C30.0454 26.7744 29.1561 25.7812 27.1562 25.7812C25.1564 25.7812 24.2671 26.7744 23.6178 27.4995C23.1051 28.072 22.8478 28.3594 22 28.3594C21.1522 28.3594 20.895 28.072 20.3822 27.4995C19.7329 26.7744 18.8436 25.7812 16.8438 25.7812C14.8439 25.7812 13.9546 26.7744 13.3053 27.4995C12.7925 28.072 12.5353 28.3594 11.6875 28.3594C10.8257 28.3594 10.5534 28.0662 10.0109 27.4821C9.34424 26.7643 8.43115 25.7812 6.44531 25.7812L3.86719 25.7812C3.15637 25.7812 2.57812 25.203 2.57812 24.4922C2.57812 23.7814 3.15637 23.2031 3.86719 23.2031L40.1328 23.2031C40.8436 23.2031 41.4219 23.7814 41.4219 24.4922C41.4219 25.203 40.8436 25.7812 40.1328 25.7812Z"
      fill="#000000" fill-opacity="1.000000" fill-rule="nonzero" />
   <path id="Vector"
      d="M15.5547 11.6016C15.5547 12.3135 14.9775 12.8906 14.2656 12.8906C13.5537 12.8906 12.9766 12.3135 12.9766 11.6016C12.9766 10.8896 13.5537 10.3125 14.2656 10.3125C14.9775 10.3125 15.5547 10.8896 15.5547 11.6016Z"
      fill="#000000" fill-opacity="1.000000" fill-rule="evenodd" />
   <path id="Vector"
      d="M31.0234 11.6016C31.0234 12.3135 30.4463 12.8906 29.7344 12.8906C29.0225 12.8906 28.4453 12.3135 28.4453 11.6016C28.4453 10.8896 29.0225 10.3125 29.7344 10.3125C30.4463 10.3125 31.0234 10.8896 31.0234 11.6016Z"
      fill="#000000" fill-opacity="1.000000" fill-rule="evenodd" />
   <path id="Vector"
      d="M25.8672 9.02344C25.8672 9.73535 25.29 10.3125 24.5781 10.3125C23.8662 10.3125 23.2891 9.73535 23.2891 9.02344C23.2891 8.31152 23.8662 7.73438 24.5781 7.73438C25.29 7.73438 25.8672 8.31152 25.8672 9.02344Z"
      fill="#000000" fill-opacity="1.000000" fill-rule="evenodd" />
   <path id="Vector"
      d="M20.7109 6.44531C20.7109 7.15723 20.1338 7.73438 19.4219 7.73438C18.71 7.73438 18.1328 7.15723 18.1328 6.44531C18.1328 5.7334 18.71 5.15625 19.4219 5.15625C20.1338 5.15625 20.7109 5.7334 20.7109 6.44531Z"
      fill="#000000" fill-opacity="1.000000" fill-rule="evenodd" />
</svg>