<svg class="products__btn-image" width="44.000000" height="43.489380" viewBox="0 0 44 43.4894" fill="none"
   xmlns="http://www.w3.org/2000/svg" xmlns:xlink="http://www.w3.org/1999/xlink">
   <defs>
      <clipPath id="clip20162_146">
         <rect width="44.000000" height="43.489380" fill="white" fill-opacity="0" />
      </clipPath>
   </defs>
   <rect width="44.000000" height="43.489380" fill="#FFFFFF" fill-opacity="0" />
   <g clip-path="url(#clip20162_146)">
      <path
         d="M31.158 14.6574L30.6872 13.1259C30.0892 11.3861 28.1774 10.455 26.4173 11.046C25.4271 11.3785 24.6495 12.1472 24.313 13.1259L23.8423 14.6574C23.4461 15.949 23.363 17.3147 23.5995 18.6439C23.8153 19.7631 24.5342 20.7245 25.5532 21.2569L25.0259 32.907C24.9553 33.5573 25.1687 34.2064 25.6125 34.6915C26.5671 35.7234 28.1874 35.7952 29.2314 34.8517C29.2879 34.8008 29.342 34.7473 29.3936 34.6915C29.8275 34.2202 30.0406 33.59 29.9803 32.9556L29.4501 21.2554C30.4677 20.7228 31.1853 19.762 31.4007 18.6439C31.6373 17.3147 31.5542 15.949 31.158 14.6574ZM29.9561 18.3917C29.7973 19.1957 29.2176 19.8553 28.4344 20.1233C28.1371 20.2337 27.9456 20.5208 27.9599 20.8344L28.5173 33.0701C28.5429 33.3101 28.4628 33.5494 28.2972 33.7267C27.8557 34.1588 27.1445 34.1588 26.703 33.7267C26.5292 33.535 26.4503 33.277 26.4874 33.0222L27.0403 20.8344C27.0546 20.5208 26.8632 20.2337 26.5659 20.1233C25.7827 19.8553 25.2029 19.1957 25.0442 18.3917C24.848 17.2881 24.9172 16.1544 25.2458 15.0822L25.7167 13.5499C26.0809 12.5764 27.1747 12.079 28.1598 12.4391C28.6805 12.6294 29.091 13.0352 29.2836 13.5499L29.7544 15.0822C30.0828 16.1545 30.1519 17.2881 29.9561 18.3917Z"
         fill="#000000" fill-opacity="1.000000" fill-rule="nonzero" />
      <path
         d="M19.8 10.8723C19.395 10.8723 19.0667 11.1968 19.0667 11.5972L19.0667 17.8205L17.0815 19.7826C16.9347 19.9272 16.8566 20.1266 16.8667 20.3312L17.5084 33.0157C17.5236 33.2892 17.4232 33.5568 17.2311 33.7543C16.8297 34.1545 16.176 34.1574 15.7709 33.7606C15.7687 33.7585 15.7666 33.7563 15.7645 33.7543C15.5723 33.5568 15.472 33.2892 15.4873 33.0157L16.1334 20.3312C16.1436 20.1266 16.0658 19.9274 15.9192 19.7826L13.9333 17.8205L13.9333 11.5972C13.9333 11.1968 13.605 10.8723 13.2 10.8723C12.795 10.8723 12.4667 11.1968 12.4667 11.5972L12.4667 18.1205C12.4667 18.3128 12.5441 18.4971 12.6815 18.633L14.6512 20.5806L14.0258 32.9454C13.9592 34.296 15.013 35.4443 16.3795 35.5101C17.7459 35.5758 18.9077 34.5342 18.9743 33.1837C18.9782 33.1042 18.9782 33.0248 18.9743 32.9454L18.3488 20.5807L20.3185 18.6331C20.456 18.4972 20.5333 18.3129 20.5333 18.1207L20.5333 11.5972C20.5333 11.1968 20.205 10.8723 19.8 10.8723Z"
         fill="#000000" fill-opacity="1.000000" fill-rule="nonzero" />
      <path
         d="M15.4 10.8723C14.995 10.8723 14.6666 11.1968 14.6666 11.5971L14.6666 17.3957C14.6666 17.796 14.995 18.1205 15.4 18.1205C15.8049 18.1205 16.1333 17.796 16.1333 17.3957L16.1333 11.5971C16.1333 11.1968 15.8049 10.8723 15.4 10.8723Z"
         fill="#000000" fill-opacity="1.000000" fill-rule="nonzero" />
      <path
         d="M17.6 10.8723C17.1951 10.8723 16.8667 11.1968 16.8667 11.5971L16.8667 17.3957C16.8667 17.796 17.1951 18.1205 17.6 18.1205C18.005 18.1205 18.3334 17.796 18.3334 17.3957L18.3334 11.5971C18.3334 11.1968 18.005 10.8723 17.6 10.8723Z"
         fill="#000000" fill-opacity="1.000000" fill-rule="nonzero" />
      <path
         d="M22 0C9.84979 0 0 9.73547 0 21.7447C0 33.7539 9.84979 43.4894 22 43.4894C34.1502 43.4894 44 33.7539 44 21.7447C43.9863 9.74109 34.1445 0.0136108 22 0ZM22 42.0397C10.6597 42.0397 1.46667 32.9534 1.46667 21.7447C1.46667 10.536 10.6597 1.44965 22 1.44965C33.3403 1.44965 42.5333 10.536 42.5333 21.7447C42.5204 32.948 33.3348 42.027 22 42.0397Z"
         fill="#000000" fill-opacity="1.000000" fill-rule="nonzero" />
      <path
         d="M24.3804 35.3511C24.3411 34.9525 23.9824 34.6609 23.5793 34.6998C23.5698 34.7007 23.5604 34.7018 23.551 34.703L23.5539 34.7023C22.5214 34.8209 21.4785 34.8209 20.446 34.7023C20.0436 34.6556 19.6792 34.9404 19.632 35.3383C19.5848 35.7363 19.8727 36.0966 20.2751 36.1432C21.4202 36.2755 22.5768 36.2755 23.7218 36.1432C24.1249 36.1045 24.4197 35.7498 24.3804 35.3511Z"
         fill="#000000" fill-opacity="1.000000" fill-rule="nonzero" />
      <path
         d="M33.2202 12.4045C32.96 12.0978 32.4974 12.0577 32.1871 12.3151C32.1861 12.3159 32.1851 12.3168 32.184 12.3176C31.8744 12.5756 31.835 13.0328 32.0959 13.3389C36.5175 18.5268 36.1793 26.1981 31.3179 30.9861C31.031 31.2687 31.0302 31.7278 31.316 32.0114C31.602 32.295 32.0665 32.2958 32.3534 32.0132C37.756 26.6936 38.1327 18.1696 33.2202 12.4045Z"
         fill="#000000" fill-opacity="1.000000" fill-rule="nonzero" />
      <path
         d="M17.0859 9.58154C17.0854 9.58154 17.085 9.58057 17.0845 9.58057C17.0838 9.58057 17.0831 9.58154 17.0822 9.58154L17.0859 9.58154Z"
         fill="#000000" fill-opacity="1.000000" fill-rule="nonzero" />
      <path
         d="M25.4592 7.65338C22.5932 6.97449 19.5875 7.15692 16.8271 8.17743C16.4479 8.3183 16.2563 8.73633 16.3988 9.11096C16.5062 9.39337 16.7794 9.58032 17.0846 9.58057C17.1723 9.58014 17.2592 9.56427 17.3411 9.53357C19.827 8.61475 22.5337 8.45068 25.1145 9.06244C25.5082 9.15643 25.9045 8.91736 25.9996 8.5282C26.0948 8.1391 25.8528 7.74738 25.4592 7.65338Z"
         fill="#000000" fill-opacity="1.000000" fill-rule="nonzero" />
      <path
         d="M12.6492 30.9499C10.1771 28.5106 8.79156 25.1973 8.79999 21.7446C8.79272 18.9861 9.67676 16.2974 11.3234 14.0702C11.5668 13.7502 11.5016 13.2958 11.1778 13.0553C10.8541 12.8147 10.3943 12.8792 10.1509 13.1992C10.1467 13.2048 10.1425 13.2106 10.1383 13.2164C5.89844 18.9776 6.52234 26.9299 11.6101 31.9763C11.8969 32.2598 12.3619 32.26 12.6489 31.9766C12.9358 31.6932 12.936 31.2335 12.6492 30.9499Z"
         fill="#000000" fill-opacity="1.000000" fill-rule="nonzero" />
   </g>
</svg>