<svg width="20.526306" height="16.675537" viewBox="0 0 20.5263 16.6755" fill="none" xmlns="http://www.w3.org/2000/svg" xmlns:xlink="http://www.w3.org/1999/xlink">
	<desc>
			Created with Pixso.
	</desc>
	<defs/>
	<path d="M20.5263 1.98096C19.7715 2.3064 18.95 2.54077 18.1039 2.63208C18.9824 2.11011 19.6402 1.28564 19.954 0.313232C19.1297 0.803711 18.2266 1.14746 17.2849 1.32959C16.8914 0.908936 16.4153 0.57373 15.8865 0.344971C15.3577 0.116211 14.7875 -0.0012207 14.2113 0C11.8801 0 10.0054 1.88965 10.0054 4.2085C10.0054 4.53394 10.0449 4.85962 10.109 5.17285C6.61847 4.99048 3.50531 3.32275 1.43567 0.769775C1.05859 1.41382 0.860962 2.14722 0.863403 2.89355C0.863403 4.354 1.6059 5.6416 2.73816 6.39893C2.07092 6.37256 1.41925 6.18921 0.836243 5.86353L0.836243 5.91553C0.836243 7.96045 2.2818 9.65503 4.20837 10.0449C3.84662 10.1389 3.47449 10.1868 3.10077 10.188C2.82697 10.188 2.56793 10.1609 2.30646 10.1238C2.83929 11.7913 4.39093 13.0024 6.23859 13.042C4.79303 14.1743 2.98236 14.8403 1.0163 14.8403C0.663574 14.8403 0.337952 14.8279 0 14.7886C1.86493 15.9849 4.07764 16.6755 6.46057 16.6755C14.1965 16.6755 18.4295 10.2668 18.4295 4.7041C18.4295 4.52173 18.4295 4.33911 18.4172 4.15649C19.2361 3.55713 19.954 2.8147 20.5263 1.98096Z" fill="#31352B" fill-opacity="1.000000" fill-rule="nonzero"/>
</svg>
