<svg width="34.000000" height="34.000000" viewBox="0 0 34 34" fill="none" xmlns="http://www.w3.org/2000/svg" xmlns:xlink="http://www.w3.org/1999/xlink">
	<desc>
			Created with Pixso.
	</desc>
	<defs>
		<clipPath id="clip0_381">
			<rect id="stopwatch 1" width="34.000000" height="34.000000" fill="white" fill-opacity="0"/>
		</clipPath>
	</defs>
	<rect id="stopwatch 1" width="34.000000" height="34.000000" fill="#FFFFFF" fill-opacity="0"/>
	<g clip-path="url(#clip0_381)">
		<path id="XMLID_292_" d="M31.7543 12.8813L32.7503 11.8853C33.0383 11.5974 33.1969 11.2146 33.1969 10.8075C33.1969 10.4003 33.0383 10.0175 32.7504 9.72961L31.6096 8.58887C31.3217 8.30096 30.9389 8.1424 30.5318 8.1424C30.1246 8.1424 29.7418 8.30096 29.454 8.58887L28.4579 9.5849C27.1434 8.67944 25.6517 8.01379 24.0461 7.65167L24.0461 6.1795L24.6521 6.1795C25.4727 6.1795 26.1403 5.51184 26.1403 4.69128L26.1403 2.62085C26.1403 1.80023 25.4727 1.13257 24.6521 1.13257L17.8004 1.13257C16.9798 1.13257 16.3122 1.80023 16.3122 2.62085L16.3122 4.69122C16.3122 5.51178 16.9798 6.17944 17.8004 6.17944L18.4064 6.17944L18.4064 7.6557C16.8081 8.0188 15.3231 8.68292 14.0137 9.58478L13.0177 8.58881C12.7299 8.3009 12.347 8.14233 11.9399 8.14233C11.5327 8.14233 11.15 8.3009 10.8621 8.58881L9.72131 9.72955C9.12704 10.3239 9.12704 11.2909 9.72131 11.8853L9.89789 12.0618L5.19077 12.0618C4.82407 12.0618 4.5267 12.3591 4.5267 12.7259C4.5267 13.0927 4.82407 13.39 5.19077 13.39L10.3845 13.39C9.88965 14.1869 9.48001 15.0418 9.16864 15.9424L0.664062 15.9424C0.297363 15.9424 0 16.2397 0 16.6064C0 16.9732 0.297363 17.2705 0.664062 17.2705L8.78897 17.2705C8.60165 18.0942 8.4942 18.9478 8.47522 19.823L4.25 19.823C3.8833 19.823 3.58594 20.1203 3.58594 20.4871C3.58594 20.8538 3.8833 21.1511 4.25 21.1511L8.51492 21.1511C8.5867 22.0299 8.74802 22.8836 8.98947 23.7036L3.32031 23.7036C2.95361 23.7036 2.65625 24.0009 2.65625 24.3676C2.65625 24.7344 2.95361 25.0317 3.32031 25.0317L9.46179 25.0317C11.3938 29.63 15.9436 32.8676 21.2358 32.8676C28.274 32.8676 34 27.1416 34 20.1034C34 17.4246 33.1699 14.9365 31.7543 12.8813ZM30.3931 9.52795C30.4406 9.48047 30.4947 9.47052 30.5318 9.47052C30.5688 9.47052 30.623 9.48047 30.6705 9.52795L31.8113 10.6688C31.8588 10.7162 31.8687 10.7704 31.8687 10.8075C31.8687 10.8445 31.8588 10.8987 31.8112 10.9462L30.9382 11.8192C30.5031 11.3104 30.0288 10.8362 29.5201 10.4011L30.3931 9.52795ZM17.6403 4.69128L17.6403 2.62085C17.6403 2.53253 17.7122 2.46069 17.8004 2.46069L24.6521 2.46069C24.7403 2.46069 24.8122 2.53253 24.8122 2.62085L24.8122 4.69122C24.8122 4.77954 24.7403 4.85132 24.6521 4.85132L23.382 4.85132L19.0704 4.85132L17.8004 4.85132C17.7122 4.85138 17.6403 4.77954 17.6403 4.69128ZM19.7345 6.1795L22.7179 6.1795L22.7179 7.42572C22.2315 7.36926 21.7372 7.33923 21.2359 7.33923C20.7279 7.33923 20.2272 7.36993 19.7346 7.42792L19.7345 6.1795ZM10.6604 10.6687L11.8011 9.52789C11.8486 9.48041 11.9028 9.47046 11.9399 9.47046C11.9769 9.47046 12.0311 9.48041 12.0786 9.52789L12.9517 10.401C12.4428 10.8361 11.9686 11.3104 11.5335 11.8192L10.6604 10.9461C10.5839 10.8697 10.5839 10.7452 10.6604 10.6687ZM21.2358 31.5394C14.93 31.5394 9.79974 26.4092 9.79974 20.1033C9.79974 13.7975 14.93 8.6673 21.2358 8.6673C27.5417 8.6673 32.6719 13.7975 32.6719 20.1033C32.6719 26.4092 27.5417 31.5394 21.2358 31.5394Z" fill="#FF6838" fill-opacity="1.000000" fill-rule="nonzero"/>
		<path id="XMLID_899_" d="M25.6188 14.7811L22.4797 17.9202C22.1126 17.7103 21.6881 17.5895 21.2358 17.5895C19.8497 17.5895 18.722 18.7172 18.722 20.1033C18.722 21.4894 19.8497 22.6171 21.2358 22.6171C22.6219 22.6171 23.7495 21.4894 23.7495 20.1033C23.7495 19.651 23.6288 19.2265 23.4188 18.8594L26.5579 15.7203C26.8172 15.461 26.8172 15.0405 26.5579 14.7811C26.2986 14.5219 25.8782 14.5219 25.6188 14.7811ZM21.2358 21.2891C20.582 21.2891 20.0502 20.7572 20.0502 20.1034C20.0502 19.4496 20.5821 18.9177 21.2358 18.9177C21.8895 18.9177 22.4214 19.4496 22.4214 20.1034C22.4214 20.7572 21.8896 21.2891 21.2358 21.2891Z" fill="#FF6838" fill-opacity="1.000000" fill-rule="nonzero"/>
		<path id="XMLID_900_" d="M21.2361 11.4937C21.4107 11.4937 21.5821 11.4226 21.7055 11.2991C21.829 11.1755 21.9001 11.0042 21.9001 10.8296C21.9001 10.655 21.8291 10.4836 21.7055 10.3601C21.5821 10.2366 21.4107 10.1655 21.2361 10.1655C21.0614 10.1655 20.8901 10.2366 20.7666 10.3601C20.6431 10.4836 20.572 10.655 20.572 10.8296C20.572 11.0049 20.643 11.1755 20.7666 11.2991C20.8902 11.4226 21.0614 11.4937 21.2361 11.4937Z" fill="#FF6838" fill-opacity="1.000000" fill-rule="nonzero"/>
		<path id="XMLID_901_" d="M21.2361 28.7126C21.0614 28.7126 20.8901 28.7837 20.7666 28.9072C20.6431 29.0308 20.572 29.2021 20.572 29.3767C20.572 29.552 20.643 29.7227 20.7666 29.8462C20.8901 29.9704 21.0614 30.0408 21.2361 30.0408C21.4107 30.0408 21.5821 29.9704 21.7055 29.8462C21.829 29.7227 21.9001 29.5513 21.9001 29.3767C21.9001 29.2021 21.8291 29.0308 21.7055 28.9072C21.5821 28.7837 21.4107 28.7126 21.2361 28.7126Z" fill="#FF6838" fill-opacity="1.000000" fill-rule="nonzero"/>
		<path id="XMLID_902_" d="M14.6784 12.8813C14.5038 12.8813 14.3324 12.9524 14.2089 13.0759C14.0854 13.1995 14.0143 13.3708 14.0143 13.5454C14.0143 13.7207 14.0853 13.8914 14.2089 14.0156C14.3324 14.1391 14.5038 14.2095 14.6784 14.2095C14.8531 14.2095 15.0244 14.1391 15.1478 14.0156C15.2714 13.8914 15.3425 13.7207 15.3425 13.5454C15.3425 13.3708 15.2714 13.2001 15.1478 13.0759C15.0244 12.9524 14.8531 12.8813 14.6784 12.8813Z" fill="#FF6838" fill-opacity="1.000000" fill-rule="nonzero"/>
		<path id="XMLID_903_" d="M27.7937 25.9966C27.6183 25.9966 27.4477 26.0676 27.3235 26.1912C27.2 26.3147 27.1296 26.486 27.1296 26.6606C27.1296 26.8353 27.2 27.0066 27.3235 27.1301C27.4477 27.2537 27.6183 27.3247 27.7937 27.3247C27.9684 27.3247 28.1397 27.2537 28.2631 27.1301C28.3867 27.0066 28.4578 26.8353 28.4578 26.6606C28.4578 26.486 28.3867 26.3147 28.2631 26.1912C28.1397 26.0676 27.9684 25.9966 27.7937 25.9966Z" fill="#FF6838" fill-opacity="1.000000" fill-rule="nonzero"/>
		<path id="XMLID_904_" d="M14.6784 25.9966C14.5038 25.9966 14.3324 26.0676 14.2089 26.1912C14.0854 26.3147 14.0143 26.486 14.0143 26.6606C14.0143 26.8353 14.0853 27.0066 14.2089 27.1301C14.3325 27.2537 14.5038 27.3247 14.6784 27.3247C14.8531 27.3247 15.0244 27.2537 15.1478 27.1301C15.2714 27.0066 15.3425 26.8353 15.3425 26.6606C15.3425 26.486 15.2714 26.3147 15.1478 26.1912C15.0244 26.0676 14.8531 25.9966 14.6784 25.9966Z" fill="#FF6838" fill-opacity="1.000000" fill-rule="nonzero"/>
		<path id="XMLID_905_" d="M11.9625 19.439C11.7871 19.439 11.6165 19.51 11.493 19.6335C11.3689 19.7571 11.2984 19.9284 11.2984 20.103C11.2984 20.2776 11.3689 20.449 11.493 20.5725C11.6165 20.6967 11.7872 20.7671 11.9625 20.7671C12.1371 20.7671 12.3084 20.6967 12.4319 20.5725C12.5554 20.449 12.6265 20.2776 12.6265 20.103C12.6265 19.9284 12.5555 19.7571 12.4319 19.6335C12.3084 19.51 12.1371 19.439 11.9625 19.439Z" fill="#FF6838" fill-opacity="1.000000" fill-rule="nonzero"/>
		<path id="XMLID_906_" d="M30.979 19.6335C30.8555 19.51 30.6842 19.439 30.5095 19.439C30.3342 19.439 30.1635 19.51 30.0401 19.6335C29.9166 19.7571 29.8455 19.9284 29.8455 20.103C29.8455 20.2783 29.9165 20.449 30.0401 20.5725C30.1635 20.696 30.3349 20.7671 30.5095 20.7671C30.6842 20.7671 30.8555 20.696 30.979 20.5725C31.1025 20.449 31.1736 20.2776 31.1736 20.103C31.1735 19.9284 31.1025 19.7571 30.979 19.6335Z" fill="#FF6838" fill-opacity="1.000000" fill-rule="nonzero"/>
		<path id="XMLID_912_" d="M0.664062 23.7036C0.48941 23.7036 0.318085 23.774 0.19458 23.8975C0.0710449 24.0217 0 24.1924 0 24.3677C0 24.5423 0.0709839 24.713 0.19458 24.8372C0.318085 24.9607 0.48941 25.0317 0.664062 25.0317C0.838715 25.0317 1.01004 24.9607 1.13348 24.8372C1.25702 24.7136 1.32812 24.5423 1.32812 24.3677C1.32812 24.1924 1.25708 24.0211 1.13348 23.8975C1.01004 23.774 0.838715 23.7036 0.664062 23.7036Z" fill="#FF6838" fill-opacity="1.000000" fill-rule="nonzero"/>
		<path id="XMLID_916_" d="M30.3142 18.0869C30.6656 17.9821 30.8657 17.6123 30.761 17.2608C30.2915 15.6855 29.425 14.2359 28.2552 13.0686C27.0853 11.9012 25.6336 11.0378 24.057 10.5718C23.7054 10.4678 23.3359 10.6688 23.232 11.0204C23.128 11.3721 23.3288 11.7415 23.6806 11.8455C26.4825 12.6736 28.6536 14.8398 29.4882 17.6401C29.574 17.9283 29.8382 18.1146 30.1243 18.1146C30.187 18.1147 30.2509 18.1057 30.3142 18.0869Z" fill="#FF6838" fill-opacity="1.000000" fill-rule="nonzero"/>
	</g>
</svg>
