<svg width="22.000000" height="22.000000" viewBox="0 0 22 22" fill="none" xmlns="http://www.w3.org/2000/svg" xmlns:xlink="http://www.w3.org/1999/xlink">
	<desc>
			Created with Pixso.
	</desc>
	<defs>
		<clipPath id="clip120_38">
			<rect id="timer 1" width="22.000000" height="22.000000" fill="white" fill-opacity="0"/>
		</clipPath>
	</defs>
	<g opacity="0.900000">
		<rect id="timer 1" width="22.000000" height="22.000000" fill="#FFFFFF" fill-opacity="0"/>
		<g clip-path="url(#clip120_38)">
			<path id="Vector" d="M11.5747 2.54016L11.5747 1.58133C11.5747 1.41925 11.5103 1.26382 11.3957 1.1492C11.2811 1.03461 11.1257 0.970215 10.9636 0.970215C10.8015 0.970215 10.6461 1.03461 10.5315 1.1492C10.4169 1.26382 10.3525 1.41925 10.3525 1.58133L10.3525 2.54565C5.55038 2.87933 1.74438 6.88974 1.74438 11.7753C1.74438 16.8777 5.89658 21.0299 11 21.0299C16.1034 21.0299 20.2556 16.8777 20.2556 11.7753C20.2556 6.8653 16.4113 2.83807 11.5747 2.54016ZM11 19.8077C6.57034 19.8077 2.96661 16.204 2.96661 11.7753C2.96661 7.34595 6.57034 3.74252 11 3.74252C15.4296 3.74252 19.0333 7.34595 19.0333 11.7753C19.0333 16.204 15.4296 19.8077 11 19.8077Z" fill="#31352B" fill-opacity="1.000000" fill-rule="nonzero"/>
			<path id="Vector" d="M7.86301 17.3215C5.86801 16.1901 4.62869 14.0643 4.62869 11.7748C4.62869 11.6055 4.4921 11.4692 4.32312 11.4692C4.15417 11.4692 4.01758 11.6055 4.01758 11.7748C4.01758 14.284 5.37576 16.6133 7.56171 17.8535C7.63226 17.8935 7.71579 17.9038 7.79391 17.8821C7.87204 17.8605 7.93839 17.8087 7.97833 17.7382C8.01828 17.6676 8.02859 17.5841 8.00696 17.506C7.98532 17.4278 7.93353 17.3615 7.86301 17.3215Z" fill="#31352B" fill-opacity="1.000000" fill-rule="nonzero"/>
			<path id="Vector" d="M9.52917 18.1598C9.41086 18.1289 9.29337 18.0949 9.17688 18.0577C9.10016 18.0348 9.01749 18.0429 8.94666 18.0802C8.87582 18.1176 8.82251 18.1813 8.79816 18.2576C8.7738 18.3339 8.7804 18.4167 8.81647 18.4882C8.85254 18.5596 8.91525 18.6141 8.99109 18.6398C9.11819 18.6808 9.24591 18.7174 9.3764 18.7508C9.45483 18.771 9.53812 18.7592 9.60791 18.7181C9.6777 18.677 9.72827 18.6098 9.74857 18.5314C9.75861 18.4926 9.76093 18.4521 9.75534 18.4125C9.74973 18.3728 9.73636 18.3346 9.716 18.3C9.69562 18.2655 9.66861 18.2354 9.63657 18.2113C9.60449 18.1873 9.56799 18.1697 9.52917 18.1598Z" fill="#31352B" fill-opacity="1.000000" fill-rule="nonzero"/>
			<path id="Vector" d="M18.8854 5.728C19.0002 5.84244 19.1557 5.90659 19.3177 5.90634C19.4798 5.90613 19.6351 5.84152 19.7495 5.72678C19.864 5.61203 19.9281 5.45651 19.9279 5.29446C19.9277 5.13242 19.8631 4.97708 19.7483 4.86267L18.1616 3.27988C18.1048 3.22318 18.0374 3.17819 17.9632 3.14755C17.889 3.11691 17.8095 3.1012 17.7292 3.10132C17.649 3.10144 17.5695 3.11737 17.4955 3.14822C17.4214 3.17908 17.3541 3.22424 17.2975 3.2811C17.1831 3.3959 17.119 3.55139 17.1193 3.71341C17.1195 3.87543 17.184 4.03073 17.2987 4.14523L18.8854 5.728Z" fill="#31352B" fill-opacity="1.000000" fill-rule="nonzero"/>
			<path id="Vector" d="M11.5745 11.6612L11.5745 6.77567C11.5745 6.61359 11.5101 6.45816 11.3955 6.34354C11.2809 6.22894 11.1255 6.16455 10.9634 6.16455C10.8013 6.16455 10.6459 6.22894 10.5313 6.34354C10.4167 6.45816 10.3523 6.61359 10.3523 6.77567L10.3523 11.9252C10.3523 12.0936 10.44 12.254 10.5622 12.3692L12.3506 14.0406C12.4689 14.1518 12.6195 14.2074 12.7701 14.2074C12.852 14.2075 12.933 14.1905 13.0079 14.1574C13.0827 14.1244 13.1499 14.076 13.205 14.0155C13.4375 13.7698 13.4167 13.3833 13.1714 13.1517L11.5745 11.6612Z" fill="#31352B" fill-opacity="1.000000" fill-rule="nonzero"/>
		</g>
	</g>
</svg>
