<svg width="13.999859" height="12.012085" viewBox="0 0 13.9999 12.0121" fill="none" xmlns="http://www.w3.org/2000/svg" xmlns:xlink="http://www.w3.org/1999/xlink">
	<desc>
			Created with Pixso.
	</desc>
	<defs/>
	<path id="Vector" d="M8.121 0.292786C7.93353 0.480316 7.82821 0.734619 7.82821 0.999786C7.82821 1.26495 7.93353 1.51926 8.121 1.70679L11.413 4.99979L1 5.00677C0.734787 5.00677 0.480431 5.11215 0.292892 5.29968C0.105354 5.48721 0 5.74158 0 6.00677C0 6.272 0.105354 6.52637 0.292892 6.7139C0.480431 6.90143 0.734787 7.00677 1 7.00677L11.414 6.99979L8.121 10.2928C8.02549 10.385 7.94931 10.4954 7.8969 10.6174C7.84449 10.7394 7.8169 10.8706 7.81575 11.0034C7.81459 11.1362 7.8399 11.2679 7.89018 11.3907C7.94046 11.5136 8.01471 11.6253 8.1086 11.7192C8.2025 11.8131 8.31415 11.8873 8.43705 11.9376C8.55994 11.9879 8.69162 12.0132 8.8244 12.012C8.95718 12.0109 9.0884 11.9833 9.2104 11.9309C9.33241 11.8785 9.44275 11.8023 9.535 11.7068L13.121 8.1218C13.3996 7.8432 13.6207 7.51245 13.7715 7.14847C13.9222 6.78445 13.9999 6.39429 13.9999 6.00027C13.9999 5.60629 13.9222 5.21613 13.7715 4.85211C13.6207 4.4881 13.3996 4.15738 13.121 3.87878L9.535 0.292786C9.34747 0.105316 9.09316 0 8.828 0C8.56284 0 8.30853 0.105316 8.121 0.292786Z" fill="#FFFFFF" fill-opacity="1.000000" fill-rule="nonzero"/>
</svg>
