<svg width="24.000000" height="19.217407" viewBox="0 0 24 19.2174" fill="none" xmlns="http://www.w3.org/2000/svg" xmlns:xlink="http://www.w3.org/1999/xlink">
	<desc>
			Created with Pixso.
	</desc>
	<defs/>
	<path id="“" d="M5.21739 9.56525C6.49275 9.68115 7.53623 10.1739 8.34782 11.0435C9.15942 11.9131 9.56522 13.0145 9.56522 14.3478C9.56522 15.7971 9.13043 16.9855 8.26087 17.9131C7.3913 18.7826 6.28986 19.2174 4.95652 19.2174C3.44927 19.2174 2.23188 18.6666 1.30435 17.5652C0.434784 16.4637 0 14.7537 0 12.4348C0 7.97101 1.47826 4.11597 4.43478 0.869568C5.0145 0.289856 5.68116 0 6.43478 0C7.07246 0 7.62319 0.231873 8.08696 0.695679C8.55072 1.10144 8.78261 1.59418 8.78261 2.17389C8.78261 2.81158 8.55072 3.3623 8.08696 3.82611C6.57971 5.3913 5.62318 7.30432 5.21739 9.56525ZM19.6522 9.56525C20.9275 9.68115 21.971 10.1739 22.7826 11.0435C23.5942 11.9131 24 13.0145 24 14.3478C24 15.7971 23.5652 16.9855 22.6956 17.9131C21.8261 18.7826 20.7246 19.2174 19.3913 19.2174C17.8841 19.2174 16.6667 18.6666 15.7391 17.5652C14.8696 16.4637 14.4348 14.7537 14.4348 12.4348C14.4348 7.97101 15.913 4.11597 18.8696 0.869568C19.4493 0.289856 20.1159 0 20.8696 0C21.5072 0 22.058 0.231873 22.5217 0.695679C22.9855 1.10144 23.2174 1.59418 23.2174 2.17389C23.2174 2.81158 22.9855 3.3623 22.5217 3.82611C21.0145 5.3913 20.058 7.30432 19.6522 9.56525Z" fill="#C2C2C2" fill-opacity="1.000000" fill-rule="nonzero"/>
</svg>
