<svg class="products__btn-image" width="44.000000" height="44.000000" viewBox="0 0 44 44" fill="none"
   xmlns="http://www.w3.org/2000/svg" xmlns:xlink="http://www.w3.org/1999/xlink">
   <defs>
      <clipPath id="clip20162_135">
         <rect width="44.000000" height="44.000000" fill="white" fill-opacity="0" />
      </clipPath>
      <clipPath id="clip20162_134">
         <rect width="44.000000" height="44.000000" fill="white" fill-opacity="0" />
      </clipPath>
   </defs>
   <rect width="44.000000" height="44.000000" fill="#FFFFFF" fill-opacity="0" />
   <g clip-path="url(#clip20162_134)">
      <rect width="44.000000" height="44.000000" fill="#FFFFFF" fill-opacity="0" />
      <g clip-path="url(#clip20162_135)">
         <path
            d="M15.1315 13.5668L17.2563 13.5668C17.8077 13.5668 18.2562 14.0154 18.2562 14.5667L18.2562 16.0316C18.2562 16.3876 18.5447 16.6761 18.9007 16.6761C19.2567 16.6761 19.5452 16.3876 19.5452 16.0316L19.5452 14.5667C19.5452 13.3046 18.5184 12.2778 17.2563 12.2778L15.1315 12.2778C14.5894 12.2778 14.1484 11.8367 14.1484 11.2947C14.1484 10.7526 14.5894 10.3116 15.1315 10.3116L19.843 10.3116C21.0959 10.3116 22.1151 9.2923 22.1151 8.03943C22.1151 6.78656 21.0958 5.76733 19.843 5.76733L16.0738 5.76733C15.7178 5.76733 15.4293 6.05591 15.4293 6.41187C15.4293 6.76782 15.7178 7.0564 16.0738 7.0564L19.843 7.0564C20.3851 7.0564 20.826 7.49744 20.826 8.03943C20.826 8.58154 20.385 9.02258 19.843 9.02258L15.1315 9.02258C13.8786 9.02258 12.8593 10.0419 12.8593 11.2947C12.8593 12.5475 13.8786 13.5668 15.1315 13.5668Z"
            fill="#000000" fill-opacity="1.000000" fill-rule="nonzero" />
         <path
            d="M7.38855 17.8926L9.49713 17.8926C10.0414 17.8926 10.4844 18.3355 10.4844 18.8799L10.4844 20.3336C10.4844 20.6896 10.7729 20.9781 11.1289 20.9781C11.4849 20.9781 11.7734 20.6896 11.7734 20.3336L11.7734 18.8799C11.7734 17.6247 10.7523 16.6035 9.49713 16.6035L7.38855 16.6035C6.85333 16.6035 6.41797 16.1681 6.41797 15.6329C6.41797 15.0978 6.85339 14.6624 7.38855 14.6624L9.85382 14.6624C10.2098 14.6624 10.4984 14.3738 10.4984 14.0178C10.4984 13.6619 10.2098 13.3733 9.85382 13.3733L7.38855 13.3733C6.14252 13.3733 5.12891 14.3869 5.12891 15.6329C5.12891 16.879 6.14252 17.8926 7.38855 17.8926Z"
            fill="#000000" fill-opacity="1.000000" fill-rule="nonzero" />
         <path
            d="M26.2969 26.168C26.2969 26.5239 26.0083 26.8125 25.6523 26.8125C25.2964 26.8125 25.0078 26.5239 25.0078 26.168C25.0078 25.812 25.2964 25.5234 25.6523 25.5234C26.0083 25.5234 26.2969 25.812 26.2969 26.168Z"
            fill="#000000" fill-opacity="1.000000" fill-rule="evenodd" />
         <path
            d="M29.4766 27.6289C29.4766 27.9849 29.188 28.2734 28.832 28.2734C28.4761 28.2734 28.1875 27.9849 28.1875 27.6289C28.1875 27.2729 28.4761 26.9844 28.832 26.9844C29.188 26.9844 29.4766 27.2729 29.4766 27.6289Z"
            fill="#000000" fill-opacity="1.000000" fill-rule="evenodd" />
         <path
            d="M31.3672 29.8633C31.3672 30.2192 31.0786 30.5078 30.7227 30.5078C30.3667 30.5078 30.0781 30.2192 30.0781 29.8633C30.0781 29.5073 30.3667 29.2188 30.7227 29.2188C31.0786 29.2188 31.3672 29.5073 31.3672 29.8633Z"
            fill="#000000" fill-opacity="1.000000" fill-rule="evenodd" />
         <path
            d="M28.7031 24.6211C28.7031 24.9771 28.4146 25.2656 28.0586 25.2656C27.7026 25.2656 27.4141 24.9771 27.4141 24.6211C27.4141 24.2651 27.7026 23.9766 28.0586 23.9766C28.4146 23.9766 28.7031 24.2651 28.7031 24.6211Z"
            fill="#000000" fill-opacity="1.000000" fill-rule="evenodd" />
         <path
            d="M26.5547 30.293C26.5547 30.6489 26.2661 30.9375 25.9102 30.9375C25.5542 30.9375 25.2656 30.6489 25.2656 30.293C25.2656 29.937 25.5542 29.6484 25.9102 29.6484C26.2661 29.6484 26.5547 29.937 26.5547 30.293Z"
            fill="#000000" fill-opacity="1.000000" fill-rule="evenodd" />
         <path
            d="M42.9114 22.811L41.083 22.811L41.9868 20.9434C43.1332 20.7151 44 19.7015 44 18.489C44 17.2454 43.0882 16.2112 41.8981 16.0187C40.5827 13.6496 38.0131 11.8702 34.8968 11.16L34.8968 11.1108C34.8968 10.7549 34.6083 10.4663 34.2523 10.4663C33.9573 10.4663 33.709 10.6647 33.6326 10.9352C33.2401 10.8846 32.8407 10.8518 32.4363 10.8351C32.3329 10.6173 32.1116 10.4663 31.8544 10.4663C31.5974 10.4663 31.376 10.6173 31.2726 10.8351C30.8682 10.8518 30.4687 10.8846 30.0762 10.9354C29.9998 10.6648 29.7516 10.4663 29.4565 10.4663C29.1005 10.4663 28.812 10.7549 28.812 11.1108L28.812 11.16C25.6958 11.8702 23.1261 13.6497 21.8108 16.0187C20.6207 16.2112 19.709 17.2454 19.709 18.489C19.709 18.5616 19.7123 18.6335 19.7184 18.7045C16.7427 18.9811 14.0692 20.2244 12.0633 22.0897L8.01361 22.0897C7.73755 22.0897 7.49042 22.2136 7.32318 22.4081L5.43042 22.4081C5.1203 21.6247 4.35065 21.0711 3.47345 21.0711C2.31342 21.0711 1.36975 22.0148 1.36975 23.1747C1.36975 23.2738 1.37756 23.3718 1.39124 23.4684C0.580872 23.7609 0 24.5377 0 25.4475C0 25.8515 0.114746 26.2399 0.325439 26.5723C0.114746 26.9048 0 27.2932 0 27.6971C0 28.8571 0.943665 29.8008 2.10364 29.8008C2.9809 29.8008 3.75055 29.2472 4.06061 28.4637L5.76538 28.4637C5.84357 28.751 6.0592 28.9881 6.35089 29.0872L8.37177 29.7734C8.35974 29.9816 8.35321 30.1912 8.35321 30.4023C8.35321 30.601 8.35889 30.799 8.36945 30.9962C8.05347 31.0724 7.75854 31.2032 7.49609 31.3793C7.06396 31.0895 6.54492 30.9199 5.98669 30.9199C4.48792 30.9199 3.26862 32.1392 3.26862 33.6379C3.26862 33.6608 3.27032 33.6835 3.27094 33.7062L2.51685 33.7062C2.09131 33.7062 1.71411 33.9453 1.53241 34.33C1.35077 34.7148 1.40582 35.158 1.67627 35.4865L3.6098 37.8361C3.81744 38.0882 4.12372 38.2328 4.45038 38.2328L31.7103 38.2328C32.0663 38.2328 32.3548 37.9442 32.3548 37.5883C32.3548 37.2323 32.0663 36.9437 31.7103 36.9437L4.54498 36.9437L2.94147 34.9953L42.4853 34.9953L40.8818 36.9437L34.7181 36.9437C34.362 36.9437 34.0735 37.2323 34.0735 37.5883C34.0735 37.9442 34.362 38.2328 34.7181 38.2328L40.9764 38.2328C41.3031 38.2328 41.6095 38.0881 41.817 37.8359L43.7504 35.4866C44.0207 35.158 44.0759 34.7148 43.8942 34.33C43.7126 33.9452 43.3353 33.7062 42.9099 33.7062L42.2716 33.7062C42.905 32.6102 43.143 31.3112 42.9119 30.0347C42.8639 29.7703 42.657 29.5632 42.3925 29.5154C40.6466 29.1993 38.857 29.7581 37.6048 31.0102C37.5283 31.0867 37.4554 31.1659 37.3842 31.2463C37.0148 31.0463 36.594 30.9302 36.1474 30.9215L36.1474 29.6951L36.835 29.6951C37.925 29.6951 38.8117 28.8083 38.8117 27.7184L38.8117 26.8532L42.9114 26.8532C43.5116 26.8532 44 26.3648 44 25.7646L44 23.8997C44 23.2994 43.5116 22.811 42.9114 22.811ZM6.29053 33.7063L4.56 33.7063C4.5589 33.6836 4.55768 33.6609 4.55768 33.638C4.55768 32.85 5.19873 32.209 5.98669 32.209C6.21082 32.209 6.42255 32.2615 6.61127 32.3541C6.40533 32.7367 6.28815 33.1738 6.28815 33.638C6.28821 33.6609 6.28992 33.6835 6.29053 33.7063ZM38.5164 31.9218C39.3594 31.0787 40.5223 30.6484 41.7005 30.7269C41.7726 31.8121 41.412 32.8848 40.6953 33.7063L39.6325 33.7063L40.5131 32.8257C40.7648 32.574 40.7648 32.1659 40.5131 31.9142C40.2613 31.6625 39.8533 31.6625 39.6016 31.9142L38.6882 32.8276C38.6075 32.5699 38.4893 32.3287 38.3402 32.1102C38.3969 32.0457 38.4553 31.9827 38.5164 31.9218ZM25.5032 13.9423C26.4787 13.2888 27.6053 12.7986 28.812 12.4902L28.812 13.1535C28.812 13.5095 29.1005 13.798 29.4565 13.798C29.8126 13.798 30.1011 13.5095 30.1011 13.1535L30.1011 12.2346C30.4665 12.1827 30.8368 12.1483 31.2099 12.1291L31.2099 13.1535C31.2099 13.5095 31.4984 13.798 31.8544 13.798C32.2105 13.798 32.499 13.5095 32.499 13.1535L32.499 12.1291C32.8721 12.1484 33.2424 12.1827 33.6077 12.2346L33.6077 13.1535C33.6077 13.5095 33.8962 13.798 34.2523 13.798C34.6083 13.798 34.8968 13.5095 34.8968 13.1535L34.8968 12.4902C36.1035 12.7986 37.2302 13.2888 38.2057 13.9424C39.1561 14.5791 39.9304 15.348 40.4945 16.1984C40.2767 16.2942 40.0729 16.4202 39.89 16.5734C39.4453 16.2007 38.8773 15.9863 38.2829 15.9863C37.6885 15.9863 37.1205 16.2006 36.6758 16.5734C36.231 16.2007 35.663 15.9863 35.0687 15.9863C34.4742 15.9863 33.9063 16.2006 33.4615 16.5734C33.0168 16.2007 32.4488 15.9863 31.8544 15.9863C31.26 15.9863 30.6921 16.2006 30.2473 16.5734C29.8026 16.2007 29.2346 15.9863 28.6402 15.9863C28.0458 15.9863 27.4778 16.2006 27.0331 16.5734C26.5884 16.2007 26.0204 15.9863 25.426 15.9863C24.8317 15.9863 24.2637 16.2007 23.8188 16.5734C23.6361 16.4202 23.4321 16.2942 23.2144 16.1984C23.7785 15.3479 24.5528 14.579 25.5032 13.9423ZM22.2117 17.2752C22.642 17.2752 23.0441 17.5079 23.2612 17.8823C23.3765 18.0811 23.5889 18.2035 23.8188 18.2035C24.0486 18.2035 24.261 18.0812 24.3763 17.8824C24.5935 17.5079 24.9957 17.2752 25.4259 17.2752C25.8562 17.2752 26.2584 17.5079 26.4755 17.8823C26.5908 18.0811 26.8032 18.2035 27.033 18.2035C27.2629 18.2035 27.4752 18.0811 27.5906 17.8823C27.8077 17.5079 28.2098 17.2752 28.6401 17.2752C29.0703 17.2752 29.4725 17.5079 29.6898 17.8824C29.8051 18.0812 30.0175 18.2035 30.2473 18.2035C30.4771 18.2035 30.6895 18.0811 30.8048 17.8823C31.0219 17.5079 31.4241 17.2752 31.8544 17.2752C32.2845 17.2752 32.6868 17.5079 32.904 17.8824C33.0192 18.0812 33.2317 18.2035 33.4615 18.2035C33.6913 18.2035 33.9037 18.0811 34.019 17.8823C34.2361 17.5079 34.6383 17.2752 35.0686 17.2752C35.4988 17.2752 35.901 17.5079 36.1182 17.8824C36.2336 18.0812 36.4459 18.2035 36.6757 18.2035C36.9056 18.2035 37.118 18.0811 37.2333 17.8823C37.4504 17.5079 37.8525 17.2752 38.2828 17.2752C38.713 17.2752 39.1152 17.5079 39.3325 17.8824C39.4477 18.0812 39.6602 18.2035 39.89 18.2035C40.1198 18.2035 40.3322 18.0811 40.4475 17.8823C40.6646 17.5079 41.0668 17.2752 41.4971 17.2752C42.1663 17.2752 42.7108 17.8196 42.7108 18.4889C42.7108 19.1582 42.1663 19.7026 41.4971 19.7026C41.0668 19.7026 40.6646 19.47 40.4475 19.0956C40.3322 18.8968 40.1198 18.7743 39.89 18.7743C39.6602 18.7743 39.4477 18.8967 39.3325 19.0955C39.1152 19.47 38.713 19.7026 38.2828 19.7026C37.8525 19.7026 37.4504 19.47 37.2333 19.0956C37.118 18.8968 36.9056 18.7743 36.6757 18.7743C36.4459 18.7743 36.2335 18.8967 36.1182 19.0955C35.901 19.47 35.4988 19.7026 35.0686 19.7026C34.6383 19.7026 34.2361 19.47 34.019 19.0956C33.9037 18.8968 33.6913 18.7743 33.4615 18.7743C33.2317 18.7743 33.0192 18.8967 32.904 19.0955C32.6868 19.47 32.2845 19.7026 31.8544 19.7026C31.4241 19.7026 31.0219 19.47 30.8048 19.0956C30.6895 18.8968 30.4771 18.7743 30.2473 18.7743C30.0175 18.7743 29.805 18.8967 29.6898 19.0955C29.4725 19.47 29.0703 19.7026 28.6401 19.7026C28.2098 19.7026 27.8077 19.47 27.5906 19.0956C27.4752 18.8968 27.2629 18.7743 27.033 18.7743C26.8032 18.7743 26.5908 18.8967 26.4755 19.0956C26.3486 19.3143 26.1583 19.4843 25.9363 19.5881C24.4222 18.9849 22.757 18.6493 21.0094 18.6459C21.0026 18.5944 20.998 18.5423 20.998 18.4889C20.998 17.8196 21.5424 17.2752 22.2117 17.2752ZM8.3916 23.3787L10.8635 23.3787C10.6095 23.695 10.3712 24.0228 10.1518 24.3625L8.3916 24.3625L8.3916 23.3787ZM5.73279 27.1747L3.5567 27.1747C3.22144 27.1747 2.94214 27.4318 2.91443 27.7659C2.8797 28.1841 2.52356 28.5117 2.10376 28.5117C1.65454 28.5117 1.28912 28.1463 1.28912 27.6971C1.28912 27.4536 1.39697 27.2245 1.58514 27.0689C1.73309 26.9465 1.81879 26.7645 1.81879 26.5723C1.81879 26.3801 1.73309 26.1981 1.58514 26.0757C1.39697 25.92 1.28912 25.6911 1.28912 25.4474C1.28912 24.9982 1.65454 24.6329 2.10376 24.6329C2.52356 24.6329 2.8797 24.9604 2.91443 25.3787C2.94214 25.7128 3.22144 25.9698 3.5567 25.9698L5.73291 25.9698L5.73291 27.1747L5.73279 27.1747ZM5.95331 24.6809L4.06061 24.6809C3.82361 24.0821 3.31781 23.6185 2.70093 23.4328C2.6734 23.3506 2.65875 23.2636 2.65875 23.1747C2.65875 22.7255 3.02417 22.36 3.47333 22.36C3.89313 22.36 4.24927 22.6877 4.28406 23.1059C4.31183 23.4401 4.59113 23.6971 4.92639 23.6971L7.10254 23.6971L7.10254 24.3625L6.6438 24.3625C6.3678 24.3625 6.12054 24.4864 5.95331 24.6809ZM10.433 33.7063L7.57959 33.7063C7.57849 33.6836 7.57727 33.6609 7.57727 33.638C7.57727 32.85 8.21826 32.209 9.00623 32.209C9.79419 32.209 10.4352 32.85 10.4352 33.638C10.4353 33.6609 10.434 33.6836 10.433 33.7063ZM30.3116 33.7063L28.0679 33.7063C28.0668 33.6836 28.0656 33.6609 28.0656 33.638C28.0656 32.85 28.7067 32.209 29.4946 32.209C29.8885 32.209 30.2458 32.3693 30.5046 32.6281C30.3791 32.9405 30.3093 33.2812 30.3093 33.638C30.3092 33.6609 30.311 33.6835 30.3116 33.7063ZM29.4946 30.9199C27.9958 30.9199 26.7765 32.1392 26.7765 33.6379C26.7765 33.6608 26.7782 33.6835 26.7788 33.7062L11.722 33.7062C11.7227 33.6833 11.7244 33.6608 11.7244 33.6379C11.7244 32.365 10.8446 31.2941 9.66138 31.0001C9.64917 30.8018 9.64227 30.6025 9.64227 30.4023C9.64227 30.3365 9.64319 30.2711 9.64453 30.2056L16.2366 32.444C16.6807 32.5948 17.1349 32.6692 17.5847 32.6692C18.4345 32.6692 19.2687 32.4038 19.9891 31.8878C21.0906 31.0984 21.7224 29.8686 21.7224 28.5134C21.7224 28.0289 21.6392 27.5536 21.4753 27.1006C21.3541 26.7659 20.9846 26.5928 20.6498 26.714C20.3151 26.8351 20.142 27.2047 20.2632 27.5394C20.3761 27.8513 20.4333 28.179 20.4333 28.5134C20.4333 29.4477 19.9978 30.2956 19.2383 30.8398C18.4789 31.3839 17.5359 31.5237 16.6512 31.2233L7.02197 27.9535L7.02197 25.6516L17.5715 25.6516C17.8948 25.6516 18.2133 25.7057 18.5182 25.8126C18.8544 25.9305 19.222 25.7535 19.3397 25.4175C19.4575 25.0814 19.2805 24.7138 18.9446 24.596C18.5023 24.441 18.0403 24.3624 17.5715 24.3624L11.7273 24.3624C13.7835 21.6856 17.1654 19.9346 20.9831 19.9346C27.2365 19.9346 32.3239 24.6304 32.3239 30.4022C32.3239 30.6084 32.3167 30.8137 32.3036 31.0179C31.9142 31.1259 31.5596 31.3184 31.2609 31.5746C30.7855 31.1669 30.1685 30.9199 29.4946 30.9199ZM34.454 33.7063L31.6006 33.7063C31.5995 33.6836 31.5983 33.6609 31.5983 33.638C31.5983 32.85 32.2393 32.209 33.0272 32.209C33.8152 32.209 34.4563 32.85 34.4563 33.638C34.4563 33.6609 34.4551 33.6836 34.454 33.7063ZM34.8583 31.2198C34.7556 31.2726 34.6558 31.3306 34.5612 31.3955C34.2745 31.1989 33.9482 31.0569 33.5974 30.9816C33.6073 30.7893 33.6128 30.5963 33.6128 30.4023C33.6128 30.1647 33.6028 29.9293 33.5878 29.6952L34.8583 29.6952L34.8583 31.2198ZM37.5226 33.6379C37.5226 33.6608 37.5214 33.6835 37.5203 33.7062L35.743 33.7062C35.7437 33.6833 35.7454 33.6608 35.7454 33.6379C35.7454 33.1812 35.6316 32.7506 35.4317 32.3724C35.6296 32.2681 35.8547 32.2089 36.0937 32.2089C36.8817 32.2089 37.5226 32.8499 37.5226 33.6379ZM37.5226 27.7185C37.5226 28.0977 37.2142 28.4061 36.835 28.4061L33.428 28.4061C33.33 27.8759 33.1959 27.3569 33.0242 26.8532L37.5226 26.8532L37.5226 27.7185ZM42.7109 25.5641L32.4932 25.5641C32.2457 25.0558 31.9601 24.567 31.6404 24.1L34.375 24.1C34.731 24.1 35.0195 23.8115 35.0195 23.4555C35.0195 23.0995 34.731 22.811 34.375 22.811L30.6187 22.811C30.0023 22.134 29.3059 21.5223 28.5421 20.9894C28.5747 20.9907 28.6074 20.9917 28.6401 20.9917C29.2345 20.9917 29.8024 20.7773 30.2473 20.4045C30.692 20.7773 31.26 20.9917 31.8544 20.9917C32.4487 20.9917 33.0167 20.7773 33.4615 20.4045C33.9062 20.7773 34.4742 20.9917 35.0686 20.9917C35.663 20.9917 36.2309 20.7773 36.6757 20.4045C37.1204 20.7773 37.6885 20.9917 38.2828 20.9917C38.8772 20.9917 39.4451 20.7773 39.89 20.4045C40.105 20.5848 40.3489 20.7275 40.6106 20.8274L39.6508 22.811L37.3828 22.811C37.0268 22.811 36.7383 23.0995 36.7383 23.4555C36.7383 23.8115 37.0268 24.1 37.3828 24.1L42.7109 24.1L42.7109 25.5641Z"
            fill="#000000" fill-opacity="1.000000" fill-rule="nonzero" />
      </g>
   </g>
</svg>